<mxfile host="app.diagrams.net" modified="2023-05-10T07:09:29.783Z" agent="Mozilla/5.0 (Windows NT 10.0; Win64; x64) AppleWebKit/537.36 (KHTML, like Gecko) Chrome/112.0.0.0 Safari/537.36" etag="1NMktBK-TZ7WzxXIS0sv" version="21.2.9" type="github" pages="3">
  <diagram id="C5RBs43oDa-KdzZeNtuy" name="Page-1">
    <mxGraphModel dx="5250" dy="2745" grid="1" gridSize="10" guides="1" tooltips="1" connect="1" arrows="1" fold="1" page="1" pageScale="1" pageWidth="827" pageHeight="1169" math="0" shadow="0">
      <root>
        <mxCell id="WIyWlLk6GJQsqaUBKTNV-0" />
        <mxCell id="WIyWlLk6GJQsqaUBKTNV-1" parent="WIyWlLk6GJQsqaUBKTNV-0" />
        <mxCell id="YFnsuhwOAYmH7LEvqakk-93" value="" style="swimlane;html=1;startSize=20;fontStyle=0;collapsible=0;horizontal=0;swimlaneLine=1;swimlaneFillColor=#ffffff;strokeWidth=2;whiteSpace=wrap;" parent="WIyWlLk6GJQsqaUBKTNV-1" vertex="1">
          <mxGeometry x="40" y="40" width="860" height="150" as="geometry" />
        </mxCell>
        <mxCell id="YFnsuhwOAYmH7LEvqakk-94" style="edgeStyle=orthogonalEdgeStyle;rounded=0;orthogonalLoop=1;jettySize=auto;html=1;entryX=0;entryY=0.5;entryDx=0;entryDy=0;" parent="YFnsuhwOAYmH7LEvqakk-93" source="YFnsuhwOAYmH7LEvqakk-95" target="YFnsuhwOAYmH7LEvqakk-96" edge="1">
          <mxGeometry relative="1" as="geometry">
            <mxPoint x="150" y="85" as="targetPoint" />
          </mxGeometry>
        </mxCell>
        <mxCell id="YFnsuhwOAYmH7LEvqakk-95" value="" style="points=[[0.145,0.145,0],[0.5,0,0],[0.855,0.145,0],[1,0.5,0],[0.855,0.855,0],[0.5,1,0],[0.145,0.855,0],[0,0.5,0]];shape=mxgraph.bpmn.event;html=1;verticalLabelPosition=bottom;labelBackgroundColor=#ffffff;verticalAlign=top;align=center;perimeter=ellipsePerimeter;outlineConnect=0;aspect=fixed;outline=standard;symbol=general;fillColor=#60a917;fontColor=#ffffff;strokeColor=#2D7600;" parent="YFnsuhwOAYmH7LEvqakk-93" vertex="1">
          <mxGeometry x="50" y="65" width="40" height="40" as="geometry" />
        </mxCell>
        <mxCell id="YFnsuhwOAYmH7LEvqakk-96" value="&lt;font style=&quot;font-size: 10px;&quot;&gt;Регистрация&lt;/font&gt;" style="rounded=1;whiteSpace=wrap;html=1;fontSize=12;glass=0;strokeWidth=1;shadow=0;fillColor=#f5f5f5;fontColor=#333333;strokeColor=#666666;" parent="YFnsuhwOAYmH7LEvqakk-93" vertex="1">
          <mxGeometry x="160" y="62.5" width="100" height="45" as="geometry" />
        </mxCell>
        <UserObject label="Пользователь" placeholders="1" name="Variable" id="YFnsuhwOAYmH7LEvqakk-187">
          <mxCell style="text;html=1;strokeColor=none;fillColor=none;align=center;verticalAlign=middle;whiteSpace=wrap;overflow=hidden;rotation=-90;" parent="YFnsuhwOAYmH7LEvqakk-93" vertex="1">
            <mxGeometry x="-30" y="65" width="80" height="20" as="geometry" />
          </mxCell>
        </UserObject>
        <mxCell id="YFnsuhwOAYmH7LEvqakk-167" value="&lt;span style=&quot;font-size: 10px;&quot;&gt;3. Подтверждение регистрации&lt;/span&gt;" style="rounded=1;whiteSpace=wrap;html=1;fontSize=12;glass=0;strokeWidth=1;shadow=0;fillColor=#f5f5f5;fontColor=#333333;strokeColor=#666666;" parent="YFnsuhwOAYmH7LEvqakk-93" vertex="1">
          <mxGeometry x="416" y="65" width="100" height="47.5" as="geometry" />
        </mxCell>
        <mxCell id="YFnsuhwOAYmH7LEvqakk-190" value="" style="swimlane;html=1;startSize=20;fontStyle=0;collapsible=0;horizontal=0;swimlaneLine=1;swimlaneFillColor=#ffffff;strokeWidth=2;whiteSpace=wrap;" parent="WIyWlLk6GJQsqaUBKTNV-1" vertex="1">
          <mxGeometry x="40" y="410" width="860" height="140" as="geometry" />
        </mxCell>
        <mxCell id="YFnsuhwOAYmH7LEvqakk-106" value="&lt;font style=&quot;font-size: 10px;&quot;&gt;Проверка данных&lt;/font&gt;" style="rounded=1;whiteSpace=wrap;html=1;fontSize=12;glass=0;strokeWidth=1;shadow=0;" parent="YFnsuhwOAYmH7LEvqakk-190" vertex="1">
          <mxGeometry x="160" y="52" width="100" height="40" as="geometry" />
        </mxCell>
        <UserObject label="Внешние источники" placeholders="1" name="Variable" id="YFnsuhwOAYmH7LEvqakk-202">
          <mxCell style="text;html=1;strokeColor=none;fillColor=none;align=center;verticalAlign=middle;whiteSpace=wrap;overflow=hidden;rotation=-90;" parent="YFnsuhwOAYmH7LEvqakk-190" vertex="1">
            <mxGeometry x="-55" y="60" width="130" height="20" as="geometry" />
          </mxCell>
        </UserObject>
        <mxCell id="YFnsuhwOAYmH7LEvqakk-97" value="" style="shape=mxgraph.bpmn.swimlane;html=1;startSize=20;horizontal=0;swimlaneLine=1;collapsible=0;fontStyle=0;swimlaneFillColor=#ffffff;strokeWidth=2;isCollection=1;whiteSpace=wrap;" parent="WIyWlLk6GJQsqaUBKTNV-1" vertex="1">
          <mxGeometry x="40" y="190" width="860" height="235" as="geometry" />
        </mxCell>
        <mxCell id="YFnsuhwOAYmH7LEvqakk-98" value="" style="shape=mxgraph.bpmn.swimlane;html=1;startSize=20;horizontal=0;swimlaneLine=1;collapsible=0;fontStyle=0;swimlaneFillColor=#ffffff;strokeWidth=2;isCollection=1;whiteSpace=wrap;" parent="WIyWlLk6GJQsqaUBKTNV-1" vertex="1">
          <mxGeometry x="40" y="770" width="860" height="675" as="geometry" />
        </mxCell>
        <mxCell id="YFnsuhwOAYmH7LEvqakk-201" value="" style="swimlane;html=1;startSize=20;fontStyle=0;collapsible=0;horizontal=0;swimlaneLine=1;swimlaneFillColor=#ffffff;strokeWidth=2;whiteSpace=wrap;" parent="WIyWlLk6GJQsqaUBKTNV-1" vertex="1">
          <mxGeometry x="40" y="550" width="860" height="220" as="geometry" />
        </mxCell>
        <UserObject label="Модератор" placeholders="1" name="Variable" id="YFnsuhwOAYmH7LEvqakk-203">
          <mxCell style="text;html=1;strokeColor=none;fillColor=none;align=center;verticalAlign=middle;whiteSpace=wrap;overflow=hidden;rotation=-90;" parent="YFnsuhwOAYmH7LEvqakk-201" vertex="1">
            <mxGeometry x="-30" y="90" width="80" height="20" as="geometry" />
          </mxCell>
        </UserObject>
        <mxCell id="YFnsuhwOAYmH7LEvqakk-110" value="" style="points=[[0.25,0.25,0],[0.5,0,0],[0.75,0.25,0],[1,0.5,0],[0.75,0.75,0],[0.5,1,0],[0.25,0.75,0],[0,0.5,0]];shape=mxgraph.bpmn.gateway2;html=1;verticalLabelPosition=bottom;labelBackgroundColor=#ffffff;verticalAlign=top;align=center;perimeter=rhombusPerimeter;outlineConnect=0;outline=none;symbol=none;gwType=exclusive;" parent="YFnsuhwOAYmH7LEvqakk-201" vertex="1">
          <mxGeometry x="320" y="120" width="35" height="30" as="geometry" />
        </mxCell>
        <mxCell id="YFnsuhwOAYmH7LEvqakk-99" value="&lt;span style=&quot;font-size: 10px;&quot;&gt;1. Выбор и заполнение данных&lt;/span&gt;" style="rounded=1;whiteSpace=wrap;html=1;fontSize=12;glass=0;strokeWidth=1;shadow=0;fillColor=#f5f5f5;fontColor=#333333;strokeColor=#666666;" parent="WIyWlLk6GJQsqaUBKTNV-1" vertex="1">
          <mxGeometry x="200" y="305" width="100" height="45" as="geometry" />
        </mxCell>
        <mxCell id="YFnsuhwOAYmH7LEvqakk-100" value="" style="rounded=0;html=1;jettySize=auto;orthogonalLoop=1;fontSize=11;endArrow=block;endFill=0;endSize=8;strokeWidth=1;shadow=0;labelBackgroundColor=none;edgeStyle=orthogonalEdgeStyle;exitX=1;exitY=0.5;exitDx=0;exitDy=0;exitPerimeter=0;entryX=0.5;entryY=0;entryDx=0;entryDy=0;" parent="WIyWlLk6GJQsqaUBKTNV-1" source="YFnsuhwOAYmH7LEvqakk-110" target="YFnsuhwOAYmH7LEvqakk-107" edge="1">
          <mxGeometry relative="1" as="geometry" />
        </mxCell>
        <mxCell id="YFnsuhwOAYmH7LEvqakk-101" value="Нет" style="edgeLabel;html=1;align=center;verticalAlign=middle;resizable=0;points=[];fontSize=8;" parent="YFnsuhwOAYmH7LEvqakk-100" vertex="1" connectable="0">
          <mxGeometry x="-0.446" y="1" relative="1" as="geometry">
            <mxPoint as="offset" />
          </mxGeometry>
        </mxCell>
        <mxCell id="YFnsuhwOAYmH7LEvqakk-102" value="&lt;font style=&quot;font-size: 10px;&quot;&gt;Восстанавливает базу на новое “железо”&lt;/font&gt;" style="rounded=1;whiteSpace=wrap;html=1;fontSize=12;glass=0;strokeWidth=1;shadow=0;" parent="WIyWlLk6GJQsqaUBKTNV-1" vertex="1">
          <mxGeometry x="350" y="990" width="105" height="40" as="geometry" />
        </mxCell>
        <mxCell id="YFnsuhwOAYmH7LEvqakk-103" value="Да" style="edgeStyle=orthogonalEdgeStyle;rounded=0;html=1;jettySize=auto;orthogonalLoop=1;fontSize=11;endArrow=block;endFill=0;endSize=8;strokeWidth=1;shadow=0;labelBackgroundColor=none;exitX=0;exitY=0.5;exitDx=0;exitDy=0;exitPerimeter=0;entryX=0.5;entryY=0;entryDx=0;entryDy=0;" parent="WIyWlLk6GJQsqaUBKTNV-1" source="YFnsuhwOAYmH7LEvqakk-116" target="YFnsuhwOAYmH7LEvqakk-102" edge="1">
          <mxGeometry x="-0.3571" y="-5" relative="1" as="geometry">
            <mxPoint as="offset" />
          </mxGeometry>
        </mxCell>
        <mxCell id="YFnsuhwOAYmH7LEvqakk-107" value="&lt;font style=&quot;font-size: 10px;&quot;&gt;2. Создать задачу подрядчикам (ККС) в ОТРС&lt;/font&gt;" style="rounded=1;whiteSpace=wrap;html=1;fontSize=12;glass=0;strokeWidth=1;shadow=0;fillColor=#f5f5f5;fontColor=#333333;strokeColor=#666666;" parent="WIyWlLk6GJQsqaUBKTNV-1" vertex="1">
          <mxGeometry x="480" y="870" width="100" height="40" as="geometry" />
        </mxCell>
        <mxCell id="YFnsuhwOAYmH7LEvqakk-111" value="&lt;div style=&quot;text-align: justify;&quot;&gt;&lt;ul&gt;&lt;li&gt;&lt;span style=&quot;background-color: initial;&quot;&gt;&lt;font style=&quot;font-size: 8px;&quot;&gt;Выбор типа пользователя поставщик\покупатель.&lt;/font&gt;&lt;/span&gt;&lt;/li&gt;&lt;li&gt;&lt;span style=&quot;background-color: initial;&quot;&gt;&lt;font style=&quot;font-size: 8px;&quot;&gt;Заполнение регистрационной формы.&lt;/font&gt;&lt;/span&gt;&lt;/li&gt;&lt;/ul&gt;&lt;/div&gt;" style="shape=note;whiteSpace=wrap;html=1;backgroundOutline=1;fontColor=#000000;darkOpacity=0.05;fillColor=#FFF9B2;strokeColor=none;fillStyle=solid;direction=west;gradientDirection=north;gradientColor=#FFF2A1;shadow=1;size=20;pointerEvents=1;" parent="WIyWlLk6GJQsqaUBKTNV-1" vertex="1">
          <mxGeometry x="70" y="210" width="140" height="60" as="geometry" />
        </mxCell>
        <mxCell id="YFnsuhwOAYmH7LEvqakk-112" value="" style="endArrow=none;html=1;rounded=0;fontSize=8;entryX=0;entryY=0;entryDx=70;entryDy=0;entryPerimeter=0;exitX=0;exitY=0.5;exitDx=0;exitDy=0;" parent="WIyWlLk6GJQsqaUBKTNV-1" source="YFnsuhwOAYmH7LEvqakk-99" target="YFnsuhwOAYmH7LEvqakk-111" edge="1">
          <mxGeometry width="50" height="50" relative="1" as="geometry">
            <mxPoint x="340" y="370" as="sourcePoint" />
            <mxPoint x="390" y="320" as="targetPoint" />
            <Array as="points" />
          </mxGeometry>
        </mxCell>
        <mxCell id="YFnsuhwOAYmH7LEvqakk-113" value="" style="points=[[0.145,0.145,0],[0.5,0,0],[0.855,0.145,0],[1,0.5,0],[0.855,0.855,0],[0.5,1,0],[0.145,0.855,0],[0,0.5,0]];shape=mxgraph.bpmn.event;html=1;verticalLabelPosition=bottom;labelBackgroundColor=#ffffff;verticalAlign=top;align=center;perimeter=ellipsePerimeter;outlineConnect=0;aspect=fixed;outline=standard;symbol=general;fillColor=#e51400;fontColor=#ffffff;strokeColor=#B20000;" parent="WIyWlLk6GJQsqaUBKTNV-1" vertex="1">
          <mxGeometry x="262.5" y="960" width="35" height="35" as="geometry" />
        </mxCell>
        <mxCell id="YFnsuhwOAYmH7LEvqakk-116" value="" style="points=[[0.25,0.25,0],[0.5,0,0],[0.75,0.25,0],[1,0.5,0],[0.75,0.75,0],[0.5,1,0],[0.25,0.75,0],[0,0.5,0]];shape=mxgraph.bpmn.gateway2;html=1;verticalLabelPosition=bottom;labelBackgroundColor=#ffffff;verticalAlign=top;align=center;perimeter=rhombusPerimeter;outlineConnect=0;outline=none;symbol=none;gwType=exclusive;" parent="WIyWlLk6GJQsqaUBKTNV-1" vertex="1">
          <mxGeometry x="512.5" y="940" width="35" height="30" as="geometry" />
        </mxCell>
        <mxCell id="YFnsuhwOAYmH7LEvqakk-117" value="" style="edgeStyle=orthogonalEdgeStyle;rounded=0;orthogonalLoop=1;jettySize=auto;html=1;fontSize=8;entryX=0.5;entryY=0;entryDx=0;entryDy=0;entryPerimeter=0;exitX=0.5;exitY=1;exitDx=0;exitDy=0;" parent="WIyWlLk6GJQsqaUBKTNV-1" source="YFnsuhwOAYmH7LEvqakk-107" target="YFnsuhwOAYmH7LEvqakk-116" edge="1">
          <mxGeometry relative="1" as="geometry">
            <mxPoint x="420" y="830" as="sourcePoint" />
            <mxPoint x="420" y="870" as="targetPoint" />
            <Array as="points" />
          </mxGeometry>
        </mxCell>
        <mxCell id="YFnsuhwOAYmH7LEvqakk-118" value="ККС&amp;nbsp;завершил работу до конца текущего дня?" style="edgeLabel;html=1;align=center;verticalAlign=middle;resizable=0;points=[];fontSize=8;" parent="YFnsuhwOAYmH7LEvqakk-117" vertex="1" connectable="0">
          <mxGeometry x="0.1392" y="1" relative="1" as="geometry">
            <mxPoint x="-1" y="-7" as="offset" />
          </mxGeometry>
        </mxCell>
        <mxCell id="YFnsuhwOAYmH7LEvqakk-119" value="&lt;font style=&quot;font-size: 10px;&quot;&gt;Перенести сервер на любой другой ПК&lt;/font&gt;" style="rounded=1;whiteSpace=wrap;html=1;fontSize=12;glass=0;strokeWidth=1;shadow=0;" parent="WIyWlLk6GJQsqaUBKTNV-1" vertex="1">
          <mxGeometry x="620" y="990" width="105" height="40" as="geometry" />
        </mxCell>
        <mxCell id="YFnsuhwOAYmH7LEvqakk-120" value="Нет" style="edgeStyle=orthogonalEdgeStyle;rounded=0;html=1;jettySize=auto;orthogonalLoop=1;fontSize=11;endArrow=block;endFill=0;endSize=8;strokeWidth=1;shadow=0;labelBackgroundColor=none;exitX=1;exitY=0.5;exitDx=0;exitDy=0;exitPerimeter=0;entryX=0.5;entryY=0;entryDx=0;entryDy=0;" parent="WIyWlLk6GJQsqaUBKTNV-1" source="YFnsuhwOAYmH7LEvqakk-116" target="YFnsuhwOAYmH7LEvqakk-119" edge="1">
          <mxGeometry x="-0.4285" y="5" relative="1" as="geometry">
            <mxPoint as="offset" />
            <mxPoint x="535" y="1035" as="sourcePoint" />
            <mxPoint x="413" y="1060" as="targetPoint" />
          </mxGeometry>
        </mxCell>
        <mxCell id="YFnsuhwOAYmH7LEvqakk-121" value="&lt;font style=&quot;font-size: 8px;&quot;&gt;Если осуществляется перенос сервера на кассу, то обязательно должна быть сделана отметка&lt;/font&gt;&lt;div style=&quot;text-align: justify;&quot;&gt;&lt;/div&gt;" style="shape=note;whiteSpace=wrap;html=1;backgroundOutline=1;fontColor=#000000;darkOpacity=0.05;fillColor=#FFF9B2;strokeColor=none;fillStyle=solid;direction=west;gradientDirection=north;gradientColor=#FFF2A1;shadow=1;size=20;pointerEvents=1;" parent="WIyWlLk6GJQsqaUBKTNV-1" vertex="1">
          <mxGeometry x="740" y="930" width="130" height="50" as="geometry" />
        </mxCell>
        <mxCell id="YFnsuhwOAYmH7LEvqakk-122" value="" style="endArrow=none;html=1;rounded=0;fontSize=8;exitX=0.75;exitY=0;exitDx=0;exitDy=0;entryX=0.99;entryY=0.512;entryDx=0;entryDy=0;entryPerimeter=0;" parent="WIyWlLk6GJQsqaUBKTNV-1" source="YFnsuhwOAYmH7LEvqakk-119" target="YFnsuhwOAYmH7LEvqakk-121" edge="1">
          <mxGeometry width="50" height="50" relative="1" as="geometry">
            <mxPoint x="735" y="1015" as="sourcePoint" />
            <mxPoint x="760" y="970" as="targetPoint" />
            <Array as="points" />
          </mxGeometry>
        </mxCell>
        <mxCell id="YFnsuhwOAYmH7LEvqakk-124" value="&lt;font style=&quot;font-size: 10px;&quot;&gt;&lt;font style=&quot;&quot;&gt;3. Запросить&amp;nbsp;&lt;/font&gt;свежий архив базы аптеки с FTP-сервера&lt;/font&gt;" style="rounded=1;whiteSpace=wrap;html=1;fontSize=12;glass=0;strokeWidth=1;shadow=0;fillColor=#f5f5f5;fontColor=#333333;strokeColor=#666666;" parent="WIyWlLk6GJQsqaUBKTNV-1" vertex="1">
          <mxGeometry x="480" y="1040" width="100" height="40" as="geometry" />
        </mxCell>
        <mxCell id="YFnsuhwOAYmH7LEvqakk-126" value="" style="edgeStyle=orthogonalEdgeStyle;rounded=0;html=1;jettySize=auto;orthogonalLoop=1;fontSize=11;endArrow=block;endFill=0;endSize=8;strokeWidth=1;shadow=0;labelBackgroundColor=none;exitX=0.5;exitY=1;exitDx=0;exitDy=0;entryX=0;entryY=0.5;entryDx=0;entryDy=0;" parent="WIyWlLk6GJQsqaUBKTNV-1" source="YFnsuhwOAYmH7LEvqakk-102" target="YFnsuhwOAYmH7LEvqakk-124" edge="1">
          <mxGeometry x="-0.3026" y="-10" relative="1" as="geometry">
            <mxPoint as="offset" />
            <mxPoint x="515" y="975" as="sourcePoint" />
            <mxPoint x="413" y="1000" as="targetPoint" />
          </mxGeometry>
        </mxCell>
        <mxCell id="YFnsuhwOAYmH7LEvqakk-127" value="" style="edgeStyle=orthogonalEdgeStyle;rounded=0;html=1;jettySize=auto;orthogonalLoop=1;fontSize=11;endArrow=block;endFill=0;endSize=8;strokeWidth=1;shadow=0;labelBackgroundColor=none;exitX=0.5;exitY=1;exitDx=0;exitDy=0;entryX=1;entryY=0.5;entryDx=0;entryDy=0;" parent="WIyWlLk6GJQsqaUBKTNV-1" source="YFnsuhwOAYmH7LEvqakk-119" target="YFnsuhwOAYmH7LEvqakk-124" edge="1">
          <mxGeometry x="-0.3026" y="-10" relative="1" as="geometry">
            <mxPoint as="offset" />
            <mxPoint x="413" y="1040" as="sourcePoint" />
            <mxPoint x="490" y="1070" as="targetPoint" />
          </mxGeometry>
        </mxCell>
        <mxCell id="YFnsuhwOAYmH7LEvqakk-171" value="&lt;font style=&quot;font-size: 10px;&quot;&gt;Выполнить восстановление (restore) резервной копии на новую базу&lt;/font&gt;" style="points=[[0.25,0,0],[0.5,0,0],[0.75,0,0],[1,0.25,0],[1,0.5,0],[1,0.75,0],[0.75,1,0],[0.5,1,0],[0.25,1,0],[0,0.75,0],[0,0.5,0],[0,0.25,0]];shape=mxgraph.bpmn.task;whiteSpace=wrap;rectStyle=rounded;size=10;html=1;taskMarker=abstract;fontSize=10;" parent="WIyWlLk6GJQsqaUBKTNV-1" vertex="1">
          <mxGeometry x="435" y="1140" width="105" height="50" as="geometry" />
        </mxCell>
        <mxCell id="YFnsuhwOAYmH7LEvqakk-173" value="&lt;font style=&quot;font-size: 10px;&quot;&gt;Выполнить&amp;nbsp;&lt;/font&gt; восстановление данных за потерянные дни" style="points=[[0.25,0,0],[0.5,0,0],[0.75,0,0],[1,0.25,0],[1,0.5,0],[1,0.75,0],[0.75,1,0],[0.5,1,0],[0.25,1,0],[0,0.75,0],[0,0.5,0],[0,0.25,0]];shape=mxgraph.bpmn.task;whiteSpace=wrap;rectStyle=rounded;size=10;html=1;taskMarker=abstract;fontSize=10;" parent="WIyWlLk6GJQsqaUBKTNV-1" vertex="1">
          <mxGeometry x="595" y="1140" width="105" height="50" as="geometry" />
        </mxCell>
        <mxCell id="YFnsuhwOAYmH7LEvqakk-174" value="" style="edgeStyle=orthogonalEdgeStyle;rounded=0;html=1;jettySize=auto;orthogonalLoop=1;fontSize=11;endArrow=block;endFill=0;endSize=8;strokeWidth=1;shadow=0;labelBackgroundColor=none;entryX=0;entryY=0.5;entryDx=0;entryDy=0;exitX=1;exitY=0.5;exitDx=0;exitDy=0;entryPerimeter=0;exitPerimeter=0;" parent="WIyWlLk6GJQsqaUBKTNV-1" source="YFnsuhwOAYmH7LEvqakk-171" target="YFnsuhwOAYmH7LEvqakk-173" edge="1">
          <mxGeometry x="-0.3026" y="-10" relative="1" as="geometry">
            <mxPoint as="offset" />
            <mxPoint x="540" y="1165" as="sourcePoint" />
            <mxPoint x="510" y="1160" as="targetPoint" />
          </mxGeometry>
        </mxCell>
        <mxCell id="YFnsuhwOAYmH7LEvqakk-175" value="&lt;font style=&quot;font-size: 9px;&quot;&gt;в ЦБ запускает обработку «&lt;strong style=&quot;box-sizing: border-box; -webkit-print-color-adjust: exact; color: rgb(55, 53, 47); font-family: ui-sans-serif, -apple-system, BlinkMacSystemFont, &amp;quot;Segoe UI&amp;quot;, Helvetica, &amp;quot;Apple Color Emoji&amp;quot;, Arial, sans-serif, &amp;quot;Segoe UI Emoji&amp;quot;, &amp;quot;Segoe UI Symbol&amp;quot;; text-align: left;&quot;&gt;0047_Зарегистрировать к обмену документы&lt;/strong&gt;&lt;span style=&quot;color: rgb(55, 53, 47); font-family: ui-sans-serif, -apple-system, BlinkMacSystemFont, &amp;quot;Segoe UI&amp;quot;, Helvetica, &amp;quot;Apple Color Emoji&amp;quot;, Arial, sans-serif, &amp;quot;Segoe UI Emoji&amp;quot;, &amp;quot;Segoe UI Symbol&amp;quot;; text-align: left;&quot;&gt;»&lt;/span&gt;&lt;/font&gt;" style="points=[[0.25,0,0],[0.5,0,0],[0.75,0,0],[1,0.25,0],[1,0.5,0],[1,0.75,0],[0.75,1,0],[0.5,1,0],[0.25,1,0],[0,0.75,0],[0,0.5,0],[0,0.25,0]];shape=mxgraph.bpmn.task;whiteSpace=wrap;rectStyle=rounded;size=10;html=1;taskMarker=abstract;isLoopSub=1;fontSize=10;" parent="WIyWlLk6GJQsqaUBKTNV-1" vertex="1">
          <mxGeometry x="750" y="1135" width="120" height="60" as="geometry" />
        </mxCell>
        <mxCell id="YFnsuhwOAYmH7LEvqakk-176" value="&lt;font style=&quot;font-size: 9px;&quot;&gt;Выбрать период со дня создания резервной копии по день поломки базы/сервера &lt;strong style=&quot;box-sizing: border-box; -webkit-print-color-adjust: exact; color: rgb(55, 53, 47); font-family: ui-sans-serif, -apple-system, BlinkMacSystemFont, &amp;quot;Segoe UI&amp;quot;, Helvetica, &amp;quot;Apple Color Emoji&amp;quot;, Arial, sans-serif, &amp;quot;Segoe UI Emoji&amp;quot;, &amp;quot;Segoe UI Symbol&amp;quot;; text-align: left;&quot;&gt;включительно&lt;/strong&gt;&lt;/font&gt;" style="points=[[0.25,0,0],[0.5,0,0],[0.75,0,0],[1,0.25,0],[1,0.5,0],[1,0.75,0],[0.75,1,0],[0.5,1,0],[0.25,1,0],[0,0.75,0],[0,0.5,0],[0,0.25,0]];shape=mxgraph.bpmn.task;whiteSpace=wrap;rectStyle=rounded;size=10;html=1;taskMarker=abstract;isLoopSub=1;fontSize=10;" parent="WIyWlLk6GJQsqaUBKTNV-1" vertex="1">
          <mxGeometry x="587.5" y="1230" width="120" height="60" as="geometry" />
        </mxCell>
        <mxCell id="YFnsuhwOAYmH7LEvqakk-177" value="&lt;font style=&quot;font-size: 9px;&quot;&gt;Выбрать наш узел и поставить все необходимые галочки&lt;/font&gt;" style="points=[[0.25,0,0],[0.5,0,0],[0.75,0,0],[1,0.25,0],[1,0.5,0],[1,0.75,0],[0.75,1,0],[0.5,1,0],[0.25,1,0],[0,0.75,0],[0,0.5,0],[0,0.25,0]];shape=mxgraph.bpmn.task;whiteSpace=wrap;rectStyle=rounded;size=10;html=1;taskMarker=abstract;isLoopSub=1;fontSize=10;" parent="WIyWlLk6GJQsqaUBKTNV-1" vertex="1">
          <mxGeometry x="425" y="1230" width="120" height="60" as="geometry" />
        </mxCell>
        <mxCell id="YFnsuhwOAYmH7LEvqakk-178" value="" style="edgeStyle=orthogonalEdgeStyle;rounded=0;html=1;jettySize=auto;orthogonalLoop=1;fontSize=11;endArrow=block;endFill=0;endSize=8;strokeWidth=1;shadow=0;labelBackgroundColor=none;entryX=0;entryY=0.5;entryDx=0;entryDy=0;exitX=1;exitY=0.5;exitDx=0;exitDy=0;entryPerimeter=0;exitPerimeter=0;" parent="WIyWlLk6GJQsqaUBKTNV-1" source="YFnsuhwOAYmH7LEvqakk-173" target="YFnsuhwOAYmH7LEvqakk-175" edge="1">
          <mxGeometry x="-0.3026" y="-10" relative="1" as="geometry">
            <mxPoint as="offset" />
            <mxPoint x="550" y="1175" as="sourcePoint" />
            <mxPoint x="605" y="1175" as="targetPoint" />
          </mxGeometry>
        </mxCell>
        <mxCell id="YFnsuhwOAYmH7LEvqakk-179" value="" style="edgeStyle=orthogonalEdgeStyle;rounded=0;html=1;jettySize=auto;orthogonalLoop=1;fontSize=11;endArrow=block;endFill=0;endSize=8;strokeWidth=1;shadow=0;labelBackgroundColor=none;entryX=1;entryY=0.5;entryDx=0;entryDy=0;exitX=0.5;exitY=1;exitDx=0;exitDy=0;entryPerimeter=0;exitPerimeter=0;" parent="WIyWlLk6GJQsqaUBKTNV-1" source="YFnsuhwOAYmH7LEvqakk-175" target="YFnsuhwOAYmH7LEvqakk-176" edge="1">
          <mxGeometry x="-0.3026" y="-10" relative="1" as="geometry">
            <mxPoint as="offset" />
            <mxPoint x="710" y="1175" as="sourcePoint" />
            <mxPoint x="752" y="1080" as="targetPoint" />
          </mxGeometry>
        </mxCell>
        <mxCell id="YFnsuhwOAYmH7LEvqakk-180" value="" style="edgeStyle=orthogonalEdgeStyle;rounded=0;html=1;jettySize=auto;orthogonalLoop=1;fontSize=11;endArrow=block;endFill=0;endSize=8;strokeWidth=1;shadow=0;labelBackgroundColor=none;entryX=1;entryY=0.5;entryDx=0;entryDy=0;entryPerimeter=0;exitX=0;exitY=0.5;exitDx=0;exitDy=0;exitPerimeter=0;" parent="WIyWlLk6GJQsqaUBKTNV-1" source="YFnsuhwOAYmH7LEvqakk-176" target="YFnsuhwOAYmH7LEvqakk-177" edge="1">
          <mxGeometry x="-0.3026" y="-10" relative="1" as="geometry">
            <mxPoint as="offset" />
            <mxPoint x="802" y="1190" as="sourcePoint" />
            <mxPoint x="762" y="1090" as="targetPoint" />
          </mxGeometry>
        </mxCell>
        <UserObject label="Платформа" placeholders="1" name="Variable" id="YFnsuhwOAYmH7LEvqakk-188">
          <mxCell style="text;html=1;strokeColor=none;fillColor=none;align=center;verticalAlign=middle;whiteSpace=wrap;overflow=hidden;rotation=-90;" parent="WIyWlLk6GJQsqaUBKTNV-1" vertex="1">
            <mxGeometry x="10" y="290" width="80" height="20" as="geometry" />
          </mxCell>
        </UserObject>
        <mxCell id="YFnsuhwOAYmH7LEvqakk-189" value="&lt;font style=&quot;font-size: 10px;&quot;&gt;2. Отправка заполненной формы&amp;nbsp;&lt;/font&gt;" style="rounded=1;whiteSpace=wrap;html=1;fontSize=12;glass=0;strokeWidth=1;shadow=0;fillColor=#f5f5f5;fontColor=#333333;strokeColor=#666666;" parent="WIyWlLk6GJQsqaUBKTNV-1" vertex="1">
          <mxGeometry x="370" y="305" width="100" height="45" as="geometry" />
        </mxCell>
        <mxCell id="YFnsuhwOAYmH7LEvqakk-114" value="" style="edgeStyle=orthogonalEdgeStyle;rounded=0;orthogonalLoop=1;jettySize=auto;html=1;fontSize=8;exitX=0.25;exitY=1;exitDx=0;exitDy=0;entryX=0.25;entryY=0;entryDx=0;entryDy=0;dashed=1;" parent="WIyWlLk6GJQsqaUBKTNV-1" source="YFnsuhwOAYmH7LEvqakk-99" target="YFnsuhwOAYmH7LEvqakk-106" edge="1">
          <mxGeometry relative="1" as="geometry">
            <mxPoint x="260" y="75" as="sourcePoint" />
            <mxPoint x="260" y="480" as="targetPoint" />
            <Array as="points">
              <mxPoint x="225" y="410" />
              <mxPoint x="225" y="410" />
            </Array>
          </mxGeometry>
        </mxCell>
        <mxCell id="YFnsuhwOAYmH7LEvqakk-193" value="" style="edgeStyle=orthogonalEdgeStyle;rounded=0;orthogonalLoop=1;jettySize=auto;html=1;fontSize=8;exitX=0.5;exitY=1;exitDx=0;exitDy=0;entryX=0.5;entryY=0;entryDx=0;entryDy=0;" parent="WIyWlLk6GJQsqaUBKTNV-1" source="YFnsuhwOAYmH7LEvqakk-96" target="YFnsuhwOAYmH7LEvqakk-99" edge="1">
          <mxGeometry relative="1" as="geometry">
            <mxPoint x="260" y="345" as="sourcePoint" />
            <mxPoint x="260" y="490" as="targetPoint" />
            <Array as="points" />
          </mxGeometry>
        </mxCell>
        <mxCell id="YFnsuhwOAYmH7LEvqakk-194" value="Заявка решена?" style="edgeLabel;html=1;align=center;verticalAlign=middle;resizable=0;points=[];fontSize=8;" parent="YFnsuhwOAYmH7LEvqakk-193" vertex="1" connectable="0">
          <mxGeometry x="0.1392" y="1" relative="1" as="geometry">
            <mxPoint x="1" y="-1" as="offset" />
          </mxGeometry>
        </mxCell>
        <mxCell id="YFnsuhwOAYmH7LEvqakk-195" value="" style="edgeStyle=orthogonalEdgeStyle;rounded=0;orthogonalLoop=1;jettySize=auto;html=1;fontSize=8;exitX=1;exitY=0.5;exitDx=0;exitDy=0;entryX=0;entryY=0.5;entryDx=0;entryDy=0;" parent="WIyWlLk6GJQsqaUBKTNV-1" source="YFnsuhwOAYmH7LEvqakk-99" target="YFnsuhwOAYmH7LEvqakk-189" edge="1">
          <mxGeometry relative="1" as="geometry">
            <mxPoint x="270" y="355" as="sourcePoint" />
            <mxPoint x="270" y="500" as="targetPoint" />
            <Array as="points" />
          </mxGeometry>
        </mxCell>
        <mxCell id="YFnsuhwOAYmH7LEvqakk-197" value="" style="edgeStyle=orthogonalEdgeStyle;rounded=0;orthogonalLoop=1;jettySize=auto;html=1;fontSize=8;exitX=0.75;exitY=0;exitDx=0;exitDy=0;entryX=0.75;entryY=1;entryDx=0;entryDy=0;dashed=1;" parent="WIyWlLk6GJQsqaUBKTNV-1" source="YFnsuhwOAYmH7LEvqakk-106" target="YFnsuhwOAYmH7LEvqakk-99" edge="1">
          <mxGeometry relative="1" as="geometry">
            <mxPoint x="280" y="365" as="sourcePoint" />
            <mxPoint x="280" y="510" as="targetPoint" />
            <Array as="points" />
          </mxGeometry>
        </mxCell>
        <mxCell id="YFnsuhwOAYmH7LEvqakk-207" value="генерация и отправка кода" style="points=[[0.145,0.145,0],[0.5,0,0],[0.855,0.145,0],[1,0.5,0],[0.855,0.855,0],[0.5,1,0],[0.145,0.855,0],[0,0.5,0]];shape=mxgraph.bpmn.event;html=1;verticalLabelPosition=bottom;labelBackgroundColor=#ffffff;verticalAlign=top;align=center;perimeter=ellipsePerimeter;outlineConnect=0;aspect=fixed;outline=catching;symbol=message;" parent="WIyWlLk6GJQsqaUBKTNV-1" vertex="1">
          <mxGeometry x="400" y="220" width="40" height="40" as="geometry" />
        </mxCell>
        <mxCell id="YFnsuhwOAYmH7LEvqakk-169" value="" style="edgeStyle=orthogonalEdgeStyle;rounded=0;orthogonalLoop=1;jettySize=auto;html=1;fontSize=10;exitX=1;exitY=0.5;exitDx=0;exitDy=0;" parent="WIyWlLk6GJQsqaUBKTNV-1" source="YFnsuhwOAYmH7LEvqakk-167" target="YFnsuhwOAYmH7LEvqakk-211" edge="1">
          <mxGeometry relative="1" as="geometry">
            <mxPoint x="570.625" y="210" as="targetPoint" />
          </mxGeometry>
        </mxCell>
        <mxCell id="YFnsuhwOAYmH7LEvqakk-209" value="" style="edgeStyle=orthogonalEdgeStyle;rounded=0;orthogonalLoop=1;jettySize=auto;html=1;fontSize=8;exitX=0.5;exitY=0;exitDx=0;exitDy=0;entryX=0.5;entryY=1;entryDx=0;entryDy=0;entryPerimeter=0;" parent="WIyWlLk6GJQsqaUBKTNV-1" source="YFnsuhwOAYmH7LEvqakk-189" target="YFnsuhwOAYmH7LEvqakk-207" edge="1">
          <mxGeometry relative="1" as="geometry">
            <mxPoint x="310" y="323" as="sourcePoint" />
            <mxPoint x="380" y="323" as="targetPoint" />
            <Array as="points" />
          </mxGeometry>
        </mxCell>
        <mxCell id="YFnsuhwOAYmH7LEvqakk-210" value="" style="edgeStyle=orthogonalEdgeStyle;rounded=0;orthogonalLoop=1;jettySize=auto;html=1;fontSize=8;entryX=0;entryY=0.5;entryDx=0;entryDy=0;exitX=0.5;exitY=0;exitDx=0;exitDy=0;exitPerimeter=0;" parent="WIyWlLk6GJQsqaUBKTNV-1" source="YFnsuhwOAYmH7LEvqakk-207" target="YFnsuhwOAYmH7LEvqakk-167" edge="1">
          <mxGeometry relative="1" as="geometry">
            <mxPoint x="320" y="333" as="sourcePoint" />
            <mxPoint x="390" y="333" as="targetPoint" />
            <Array as="points" />
          </mxGeometry>
        </mxCell>
        <mxCell id="YFnsuhwOAYmH7LEvqakk-181" value="&lt;font style=&quot;font-size: 10px;&quot;&gt;4. Вход в систему&lt;/font&gt;" style="rounded=1;whiteSpace=wrap;html=1;fontSize=12;glass=0;strokeWidth=1;shadow=0;fillColor=#f5f5f5;fontColor=#333333;strokeColor=#666666;" parent="WIyWlLk6GJQsqaUBKTNV-1" vertex="1">
          <mxGeometry x="540" y="305" width="100" height="45" as="geometry" />
        </mxCell>
        <mxCell id="YFnsuhwOAYmH7LEvqakk-212" style="edgeStyle=orthogonalEdgeStyle;rounded=0;orthogonalLoop=1;jettySize=auto;html=1;entryX=0.5;entryY=0;entryDx=0;entryDy=0;" parent="WIyWlLk6GJQsqaUBKTNV-1" source="YFnsuhwOAYmH7LEvqakk-211" target="YFnsuhwOAYmH7LEvqakk-181" edge="1">
          <mxGeometry relative="1" as="geometry" />
        </mxCell>
        <mxCell id="YFnsuhwOAYmH7LEvqakk-215" style="edgeStyle=orthogonalEdgeStyle;rounded=0;orthogonalLoop=1;jettySize=auto;html=1;entryX=0;entryY=0.5;entryDx=0;entryDy=0;entryPerimeter=0;" parent="WIyWlLk6GJQsqaUBKTNV-1" source="YFnsuhwOAYmH7LEvqakk-211" target="YFnsuhwOAYmH7LEvqakk-168" edge="1">
          <mxGeometry relative="1" as="geometry" />
        </mxCell>
        <mxCell id="YFnsuhwOAYmH7LEvqakk-211" value="" style="points=[[0.145,0.145,0],[0.5,0,0],[0.855,0.145,0],[1,0.5,0],[0.855,0.855,0],[0.5,1,0],[0.145,0.855,0],[0,0.5,0]];shape=mxgraph.bpmn.gateway2;html=1;verticalLabelPosition=bottom;labelBackgroundColor=#ffffff;verticalAlign=top;align=center;perimeter=rhombusPerimeter;outlineConnect=0;aspect=fixed;outline=standard;symbol=timer;" parent="WIyWlLk6GJQsqaUBKTNV-1" vertex="1">
          <mxGeometry x="565" y="215" width="50" height="50" as="geometry" />
        </mxCell>
        <mxCell id="YFnsuhwOAYmH7LEvqakk-213" style="edgeStyle=orthogonalEdgeStyle;rounded=0;orthogonalLoop=1;jettySize=auto;html=1;exitX=1;exitY=0.5;exitDx=0;exitDy=0;entryX=0;entryY=0.5;entryDx=0;entryDy=0;entryPerimeter=0;" parent="WIyWlLk6GJQsqaUBKTNV-1" source="YFnsuhwOAYmH7LEvqakk-181" target="YFnsuhwOAYmH7LEvqakk-185" edge="1">
          <mxGeometry relative="1" as="geometry" />
        </mxCell>
        <mxCell id="YFnsuhwOAYmH7LEvqakk-185" value="" style="points=[[0.145,0.145,0],[0.5,0,0],[0.855,0.145,0],[1,0.5,0],[0.855,0.855,0],[0.5,1,0],[0.145,0.855,0],[0,0.5,0]];shape=mxgraph.bpmn.event;html=1;verticalLabelPosition=bottom;labelBackgroundColor=#ffffff;verticalAlign=top;align=center;perimeter=ellipsePerimeter;outlineConnect=0;aspect=fixed;outline=standard;symbol=general;fillColor=#e51400;fontColor=#ffffff;strokeColor=#B20000;" parent="WIyWlLk6GJQsqaUBKTNV-1" vertex="1">
          <mxGeometry x="733.75" y="310" width="35" height="35" as="geometry" />
        </mxCell>
        <mxCell id="YFnsuhwOAYmH7LEvqakk-184" style="edgeStyle=orthogonalEdgeStyle;rounded=0;orthogonalLoop=1;jettySize=auto;html=1;fontSize=10;exitX=0.5;exitY=1;exitDx=0;exitDy=0;exitPerimeter=0;" parent="WIyWlLk6GJQsqaUBKTNV-1" source="YFnsuhwOAYmH7LEvqakk-168" target="YFnsuhwOAYmH7LEvqakk-185" edge="1">
          <mxGeometry relative="1" as="geometry">
            <mxPoint x="700" y="290" as="sourcePoint" />
          </mxGeometry>
        </mxCell>
        <mxCell id="YFnsuhwOAYmH7LEvqakk-168" value="Ошибка: Срок кода истек" style="points=[[0.25,0,0],[0.5,0,0],[0.75,0,0],[1,0.25,0],[1,0.5,0],[1,0.75,0],[0.75,1,0],[0.5,1,0],[0.25,1,0],[0,0.75,0],[0,0.5,0],[0,0.25,0]];shape=mxgraph.bpmn.task;whiteSpace=wrap;rectStyle=rounded;size=10;html=1;taskMarker=abstract;fontSize=10;" parent="WIyWlLk6GJQsqaUBKTNV-1" vertex="1">
          <mxGeometry x="700" y="215" width="102.5" height="50" as="geometry" />
        </mxCell>
      </root>
    </mxGraphModel>
  </diagram>
  <diagram id="7d8w2Yc1UeevmGjJf6YJ" name="Страница 2">
    <mxGraphModel dx="-654" dy="523" grid="1" gridSize="10" guides="1" tooltips="1" connect="1" arrows="1" fold="1" page="1" pageScale="1" pageWidth="827" pageHeight="1169" math="0" shadow="0">
      <root>
        <mxCell id="0" />
        <mxCell id="1" parent="0" />
        <mxCell id="RZlxi_Dk2MY7NXMKiJeB-1" value="" style="swimlane;html=1;startSize=20;fontStyle=0;collapsible=0;horizontal=0;swimlaneLine=1;swimlaneFillColor=#ffffff;strokeWidth=2;whiteSpace=wrap;" vertex="1" parent="1">
          <mxGeometry x="1680" y="80" width="1150" height="590" as="geometry" />
        </mxCell>
        <mxCell id="RZlxi_Dk2MY7NXMKiJeB-2" style="edgeStyle=orthogonalEdgeStyle;rounded=0;orthogonalLoop=1;jettySize=auto;html=1;entryX=0;entryY=0.5;entryDx=0;entryDy=0;" edge="1" parent="RZlxi_Dk2MY7NXMKiJeB-1" source="RZlxi_Dk2MY7NXMKiJeB-3" target="RZlxi_Dk2MY7NXMKiJeB-4">
          <mxGeometry relative="1" as="geometry">
            <mxPoint x="140" y="160" as="targetPoint" />
          </mxGeometry>
        </mxCell>
        <mxCell id="RZlxi_Dk2MY7NXMKiJeB-3" value="" style="points=[[0.145,0.145,0],[0.5,0,0],[0.855,0.145,0],[1,0.5,0],[0.855,0.855,0],[0.5,1,0],[0.145,0.855,0],[0,0.5,0]];shape=mxgraph.bpmn.event;html=1;verticalLabelPosition=bottom;labelBackgroundColor=#ffffff;verticalAlign=top;align=center;perimeter=ellipsePerimeter;outlineConnect=0;aspect=fixed;outline=standard;symbol=general;fillColor=#60a917;fontColor=#ffffff;strokeColor=#2D7600;" vertex="1" parent="RZlxi_Dk2MY7NXMKiJeB-1">
          <mxGeometry x="40" y="140" width="40" height="40" as="geometry" />
        </mxCell>
        <mxCell id="RZlxi_Dk2MY7NXMKiJeB-4" value="&lt;font style=&quot;font-size: 10px;&quot;&gt;1. Резерв стола&lt;/font&gt;" style="rounded=1;whiteSpace=wrap;html=1;fontSize=12;glass=0;strokeWidth=1;shadow=0;fillColor=#f5f5f5;fontColor=#333333;strokeColor=#666666;" vertex="1" parent="RZlxi_Dk2MY7NXMKiJeB-1">
          <mxGeometry x="120" y="137.5" width="80" height="45" as="geometry" />
        </mxCell>
        <UserObject label="Этап 1" placeholders="1" name="Variable" id="RZlxi_Dk2MY7NXMKiJeB-5">
          <mxCell style="text;html=1;strokeColor=none;fillColor=none;align=center;verticalAlign=middle;whiteSpace=wrap;overflow=hidden;rotation=-90;" vertex="1" parent="RZlxi_Dk2MY7NXMKiJeB-1">
            <mxGeometry x="-30" y="180" width="80" height="20" as="geometry" />
          </mxCell>
        </UserObject>
        <mxCell id="RZlxi_Dk2MY7NXMKiJeB-104" style="edgeStyle=orthogonalEdgeStyle;rounded=0;orthogonalLoop=1;jettySize=auto;html=1;" edge="1" parent="RZlxi_Dk2MY7NXMKiJeB-1" source="RZlxi_Dk2MY7NXMKiJeB-74" target="RZlxi_Dk2MY7NXMKiJeB-83">
          <mxGeometry relative="1" as="geometry" />
        </mxCell>
        <mxCell id="RZlxi_Dk2MY7NXMKiJeB-74" value="&lt;font style=&quot;font-size: 10px;&quot;&gt;Проверить доступные места&lt;/font&gt;" style="rounded=1;whiteSpace=wrap;html=1;fontSize=12;glass=0;strokeWidth=1;shadow=0;" vertex="1" parent="RZlxi_Dk2MY7NXMKiJeB-1">
          <mxGeometry x="310" y="140" width="70" height="40" as="geometry" />
        </mxCell>
        <mxCell id="RZlxi_Dk2MY7NXMKiJeB-101" style="edgeStyle=orthogonalEdgeStyle;rounded=0;orthogonalLoop=1;jettySize=auto;html=1;entryX=0;entryY=0.5;entryDx=0;entryDy=0;exitX=0.5;exitY=1;exitDx=0;exitDy=0;exitPerimeter=0;" edge="1" parent="RZlxi_Dk2MY7NXMKiJeB-1" source="RZlxi_Dk2MY7NXMKiJeB-76" target="RZlxi_Dk2MY7NXMKiJeB-100">
          <mxGeometry relative="1" as="geometry" />
        </mxCell>
        <mxCell id="RZlxi_Dk2MY7NXMKiJeB-108" value="Вынос" style="edgeLabel;html=1;align=center;verticalAlign=middle;resizable=0;points=[];" vertex="1" connectable="0" parent="RZlxi_Dk2MY7NXMKiJeB-101">
          <mxGeometry x="0.3017" y="-3" relative="1" as="geometry">
            <mxPoint x="14" y="-3" as="offset" />
          </mxGeometry>
        </mxCell>
        <mxCell id="RZlxi_Dk2MY7NXMKiJeB-102" value="Нет" style="edgeStyle=orthogonalEdgeStyle;rounded=0;orthogonalLoop=1;jettySize=auto;html=1;entryX=0;entryY=0.5;entryDx=0;entryDy=0;" edge="1" parent="RZlxi_Dk2MY7NXMKiJeB-1" source="RZlxi_Dk2MY7NXMKiJeB-76" target="RZlxi_Dk2MY7NXMKiJeB-74">
          <mxGeometry x="-0.3333" relative="1" as="geometry">
            <mxPoint as="offset" />
          </mxGeometry>
        </mxCell>
        <mxCell id="RZlxi_Dk2MY7NXMKiJeB-103" style="edgeStyle=orthogonalEdgeStyle;rounded=0;orthogonalLoop=1;jettySize=auto;html=1;entryX=0;entryY=0.5;entryDx=0;entryDy=0;exitX=0.5;exitY=0;exitDx=0;exitDy=0;exitPerimeter=0;" edge="1" parent="RZlxi_Dk2MY7NXMKiJeB-1" source="RZlxi_Dk2MY7NXMKiJeB-76" target="RZlxi_Dk2MY7NXMKiJeB-79">
          <mxGeometry relative="1" as="geometry" />
        </mxCell>
        <mxCell id="RZlxi_Dk2MY7NXMKiJeB-107" value="Да" style="edgeLabel;html=1;align=center;verticalAlign=middle;resizable=0;points=[];" vertex="1" connectable="0" parent="RZlxi_Dk2MY7NXMKiJeB-103">
          <mxGeometry x="0.3151" y="1" relative="1" as="geometry">
            <mxPoint x="11" y="1" as="offset" />
          </mxGeometry>
        </mxCell>
        <mxCell id="RZlxi_Dk2MY7NXMKiJeB-76" value="" style="points=[[0.25,0.25,0],[0.5,0,0],[0.75,0.25,0],[1,0.5,0],[0.75,0.75,0],[0.5,1,0],[0.25,0.75,0],[0,0.5,0]];shape=mxgraph.bpmn.gateway2;html=1;verticalLabelPosition=bottom;labelBackgroundColor=#ffffff;verticalAlign=top;align=center;perimeter=rhombusPerimeter;outlineConnect=0;outline=none;symbol=none;gwType=exclusive;" vertex="1" parent="RZlxi_Dk2MY7NXMKiJeB-1">
          <mxGeometry x="230" y="145" width="35" height="30" as="geometry" />
        </mxCell>
        <mxCell id="RZlxi_Dk2MY7NXMKiJeB-77" value="" style="edgeStyle=orthogonalEdgeStyle;rounded=0;orthogonalLoop=1;jettySize=auto;html=1;fontSize=8;entryX=0;entryY=0.5;entryDx=0;entryDy=0;entryPerimeter=0;exitX=1;exitY=0.5;exitDx=0;exitDy=0;" edge="1" parent="RZlxi_Dk2MY7NXMKiJeB-1" target="RZlxi_Dk2MY7NXMKiJeB-76" source="RZlxi_Dk2MY7NXMKiJeB-4">
          <mxGeometry relative="1" as="geometry">
            <mxPoint x="380" y="115" as="sourcePoint" />
            <mxPoint x="270" y="75" as="targetPoint" />
            <Array as="points" />
          </mxGeometry>
        </mxCell>
        <mxCell id="RZlxi_Dk2MY7NXMKiJeB-105" style="edgeStyle=orthogonalEdgeStyle;rounded=0;orthogonalLoop=1;jettySize=auto;html=1;entryX=0.5;entryY=0;entryDx=0;entryDy=0;" edge="1" parent="RZlxi_Dk2MY7NXMKiJeB-1" source="RZlxi_Dk2MY7NXMKiJeB-79" target="RZlxi_Dk2MY7NXMKiJeB-83">
          <mxGeometry relative="1" as="geometry" />
        </mxCell>
        <mxCell id="RZlxi_Dk2MY7NXMKiJeB-79" value="&lt;font style=&quot;font-size: 10px;&quot;&gt;Подтвердить&lt;/font&gt;" style="rounded=1;whiteSpace=wrap;html=1;fontSize=12;glass=0;strokeWidth=1;shadow=0;" vertex="1" parent="RZlxi_Dk2MY7NXMKiJeB-1">
          <mxGeometry x="310" y="68" width="70" height="40" as="geometry" />
        </mxCell>
        <mxCell id="RZlxi_Dk2MY7NXMKiJeB-81" value="&lt;font style=&quot;font-size: 8px;&quot;&gt;Формат заведения: кафе-ресторан, вместимость зала до 100 человек, в зале свободная посадка.&lt;/font&gt;&lt;div style=&quot;text-align: justify;&quot;&gt;&lt;/div&gt;" style="shape=note;whiteSpace=wrap;html=1;backgroundOutline=1;fontColor=#000000;darkOpacity=0.05;fillColor=#FFF9B2;strokeColor=none;fillStyle=solid;direction=west;gradientDirection=north;gradientColor=#FFF2A1;shadow=1;size=20;pointerEvents=1;" vertex="1" parent="RZlxi_Dk2MY7NXMKiJeB-1">
          <mxGeometry x="170" y="18" width="130" height="50" as="geometry" />
        </mxCell>
        <mxCell id="RZlxi_Dk2MY7NXMKiJeB-82" value="" style="endArrow=none;html=1;rounded=0;fontSize=8;entryX=0.99;entryY=0.512;entryDx=0;entryDy=0;entryPerimeter=0;" edge="1" parent="RZlxi_Dk2MY7NXMKiJeB-1" source="RZlxi_Dk2MY7NXMKiJeB-4" target="RZlxi_Dk2MY7NXMKiJeB-81">
          <mxGeometry width="50" height="50" relative="1" as="geometry">
            <mxPoint x="585" y="220" as="sourcePoint" />
            <mxPoint x="610" y="175" as="targetPoint" />
            <Array as="points" />
          </mxGeometry>
        </mxCell>
        <mxCell id="RZlxi_Dk2MY7NXMKiJeB-88" style="edgeStyle=orthogonalEdgeStyle;rounded=0;orthogonalLoop=1;jettySize=auto;html=1;entryX=0;entryY=0.5;entryDx=0;entryDy=0;entryPerimeter=0;" edge="1" parent="RZlxi_Dk2MY7NXMKiJeB-1" source="RZlxi_Dk2MY7NXMKiJeB-83" target="RZlxi_Dk2MY7NXMKiJeB-90">
          <mxGeometry relative="1" as="geometry" />
        </mxCell>
        <mxCell id="RZlxi_Dk2MY7NXMKiJeB-83" value="&lt;font style=&quot;font-size: 10px;&quot;&gt;&lt;font style=&quot;&quot;&gt;2. Заказ через&lt;/font&gt;&lt;/font&gt;" style="rounded=1;whiteSpace=wrap;html=1;fontSize=12;glass=0;strokeWidth=1;shadow=0;fillColor=#f5f5f5;fontColor=#333333;strokeColor=#666666;" vertex="1" parent="RZlxi_Dk2MY7NXMKiJeB-1">
          <mxGeometry x="420" y="140" width="80" height="40" as="geometry" />
        </mxCell>
        <mxCell id="RZlxi_Dk2MY7NXMKiJeB-92" style="edgeStyle=orthogonalEdgeStyle;rounded=0;orthogonalLoop=1;jettySize=auto;html=1;entryX=0;entryY=0.5;entryDx=0;entryDy=0;exitX=0.5;exitY=0;exitDx=0;exitDy=0;exitPerimeter=0;" edge="1" parent="RZlxi_Dk2MY7NXMKiJeB-1" source="RZlxi_Dk2MY7NXMKiJeB-90" target="RZlxi_Dk2MY7NXMKiJeB-91">
          <mxGeometry relative="1" as="geometry" />
        </mxCell>
        <mxCell id="RZlxi_Dk2MY7NXMKiJeB-94" style="edgeStyle=orthogonalEdgeStyle;rounded=0;orthogonalLoop=1;jettySize=auto;html=1;entryX=0;entryY=0.5;entryDx=0;entryDy=0;exitX=0.5;exitY=1;exitDx=0;exitDy=0;exitPerimeter=0;" edge="1" parent="RZlxi_Dk2MY7NXMKiJeB-1" source="RZlxi_Dk2MY7NXMKiJeB-90" target="RZlxi_Dk2MY7NXMKiJeB-93">
          <mxGeometry relative="1" as="geometry" />
        </mxCell>
        <mxCell id="RZlxi_Dk2MY7NXMKiJeB-90" value="" style="points=[[0.25,0.25,0],[0.5,0,0],[0.75,0.25,0],[1,0.5,0],[0.75,0.75,0],[0.5,1,0],[0.25,0.75,0],[0,0.5,0]];shape=mxgraph.bpmn.gateway2;html=1;verticalLabelPosition=bottom;labelBackgroundColor=#ffffff;verticalAlign=top;align=center;perimeter=rhombusPerimeter;outlineConnect=0;outline=none;symbol=none;gwType=exclusive;" vertex="1" parent="RZlxi_Dk2MY7NXMKiJeB-1">
          <mxGeometry x="540" y="145" width="35" height="30" as="geometry" />
        </mxCell>
        <mxCell id="RZlxi_Dk2MY7NXMKiJeB-96" style="edgeStyle=orthogonalEdgeStyle;rounded=0;orthogonalLoop=1;jettySize=auto;html=1;entryX=0.5;entryY=0;entryDx=0;entryDy=0;" edge="1" parent="RZlxi_Dk2MY7NXMKiJeB-1" source="RZlxi_Dk2MY7NXMKiJeB-91" target="RZlxi_Dk2MY7NXMKiJeB-95">
          <mxGeometry relative="1" as="geometry" />
        </mxCell>
        <mxCell id="RZlxi_Dk2MY7NXMKiJeB-91" value="&lt;font style=&quot;font-size: 10px;&quot;&gt;Терминал самообслуживания&lt;/font&gt;" style="rounded=1;whiteSpace=wrap;html=1;fontSize=12;glass=0;strokeWidth=1;shadow=0;" vertex="1" parent="RZlxi_Dk2MY7NXMKiJeB-1">
          <mxGeometry x="600" y="68" width="90" height="40" as="geometry" />
        </mxCell>
        <mxCell id="RZlxi_Dk2MY7NXMKiJeB-97" style="edgeStyle=orthogonalEdgeStyle;rounded=0;orthogonalLoop=1;jettySize=auto;html=1;" edge="1" parent="RZlxi_Dk2MY7NXMKiJeB-1" source="RZlxi_Dk2MY7NXMKiJeB-93" target="RZlxi_Dk2MY7NXMKiJeB-95">
          <mxGeometry relative="1" as="geometry" />
        </mxCell>
        <mxCell id="RZlxi_Dk2MY7NXMKiJeB-93" value="&lt;font style=&quot;font-size: 10px;&quot;&gt;Касса&lt;/font&gt;" style="rounded=1;whiteSpace=wrap;html=1;fontSize=12;glass=0;strokeWidth=1;shadow=0;" vertex="1" parent="RZlxi_Dk2MY7NXMKiJeB-1">
          <mxGeometry x="600" y="210" width="90" height="40" as="geometry" />
        </mxCell>
        <mxCell id="RZlxi_Dk2MY7NXMKiJeB-99" style="edgeStyle=orthogonalEdgeStyle;rounded=0;orthogonalLoop=1;jettySize=auto;html=1;" edge="1" parent="RZlxi_Dk2MY7NXMKiJeB-1" source="RZlxi_Dk2MY7NXMKiJeB-95" target="RZlxi_Dk2MY7NXMKiJeB-98">
          <mxGeometry relative="1" as="geometry" />
        </mxCell>
        <mxCell id="RZlxi_Dk2MY7NXMKiJeB-95" value="&lt;span style=&quot;font-size: 10px;&quot;&gt;3. Показ меню&lt;/span&gt;" style="rounded=1;whiteSpace=wrap;html=1;fontSize=12;glass=0;strokeWidth=1;shadow=0;fillColor=#f5f5f5;fontColor=#333333;strokeColor=#666666;" vertex="1" parent="RZlxi_Dk2MY7NXMKiJeB-1">
          <mxGeometry x="695" y="145" width="80" height="40" as="geometry" />
        </mxCell>
        <mxCell id="RZlxi_Dk2MY7NXMKiJeB-110" style="edgeStyle=orthogonalEdgeStyle;rounded=0;orthogonalLoop=1;jettySize=auto;html=1;entryX=0.5;entryY=0;entryDx=0;entryDy=0;entryPerimeter=0;exitX=0.5;exitY=1;exitDx=0;exitDy=0;" edge="1" parent="RZlxi_Dk2MY7NXMKiJeB-1" source="RZlxi_Dk2MY7NXMKiJeB-111" target="RZlxi_Dk2MY7NXMKiJeB-109">
          <mxGeometry relative="1" as="geometry" />
        </mxCell>
        <mxCell id="RZlxi_Dk2MY7NXMKiJeB-112" style="edgeStyle=orthogonalEdgeStyle;rounded=0;orthogonalLoop=1;jettySize=auto;html=1;entryX=0.5;entryY=0;entryDx=0;entryDy=0;" edge="1" parent="RZlxi_Dk2MY7NXMKiJeB-1" source="RZlxi_Dk2MY7NXMKiJeB-98" target="RZlxi_Dk2MY7NXMKiJeB-111">
          <mxGeometry relative="1" as="geometry" />
        </mxCell>
        <mxCell id="RZlxi_Dk2MY7NXMKiJeB-98" value="&lt;span style=&quot;font-size: 10px;&quot;&gt;4. Заказ принят&lt;/span&gt;" style="rounded=1;whiteSpace=wrap;html=1;fontSize=12;glass=0;strokeWidth=1;shadow=0;fillColor=#f5f5f5;fontColor=#333333;strokeColor=#666666;" vertex="1" parent="RZlxi_Dk2MY7NXMKiJeB-1">
          <mxGeometry x="810" y="145" width="80" height="40" as="geometry" />
        </mxCell>
        <mxCell id="RZlxi_Dk2MY7NXMKiJeB-106" style="edgeStyle=orthogonalEdgeStyle;rounded=0;orthogonalLoop=1;jettySize=auto;html=1;entryX=0.5;entryY=1;entryDx=0;entryDy=0;" edge="1" parent="RZlxi_Dk2MY7NXMKiJeB-1" source="RZlxi_Dk2MY7NXMKiJeB-100" target="RZlxi_Dk2MY7NXMKiJeB-83">
          <mxGeometry relative="1" as="geometry" />
        </mxCell>
        <mxCell id="RZlxi_Dk2MY7NXMKiJeB-100" value="&lt;font style=&quot;font-size: 10px;&quot;&gt;На вынос&lt;/font&gt;" style="rounded=1;whiteSpace=wrap;html=1;fontSize=12;glass=0;strokeWidth=1;shadow=0;" vertex="1" parent="RZlxi_Dk2MY7NXMKiJeB-1">
          <mxGeometry x="310" y="219" width="70" height="40" as="geometry" />
        </mxCell>
        <mxCell id="RZlxi_Dk2MY7NXMKiJeB-115" style="edgeStyle=orthogonalEdgeStyle;rounded=0;orthogonalLoop=1;jettySize=auto;html=1;entryX=0.5;entryY=0;entryDx=0;entryDy=0;" edge="1" parent="RZlxi_Dk2MY7NXMKiJeB-1" source="RZlxi_Dk2MY7NXMKiJeB-109" target="RZlxi_Dk2MY7NXMKiJeB-113">
          <mxGeometry relative="1" as="geometry" />
        </mxCell>
        <mxCell id="RZlxi_Dk2MY7NXMKiJeB-116" style="edgeStyle=orthogonalEdgeStyle;rounded=0;orthogonalLoop=1;jettySize=auto;html=1;entryX=0.5;entryY=0;entryDx=0;entryDy=0;" edge="1" parent="RZlxi_Dk2MY7NXMKiJeB-1" source="RZlxi_Dk2MY7NXMKiJeB-109" target="RZlxi_Dk2MY7NXMKiJeB-114">
          <mxGeometry relative="1" as="geometry" />
        </mxCell>
        <mxCell id="RZlxi_Dk2MY7NXMKiJeB-123" style="edgeStyle=orthogonalEdgeStyle;rounded=0;orthogonalLoop=1;jettySize=auto;html=1;entryX=0.5;entryY=0;entryDx=0;entryDy=0;" edge="1" parent="RZlxi_Dk2MY7NXMKiJeB-1" source="RZlxi_Dk2MY7NXMKiJeB-109" target="RZlxi_Dk2MY7NXMKiJeB-122">
          <mxGeometry relative="1" as="geometry" />
        </mxCell>
        <mxCell id="RZlxi_Dk2MY7NXMKiJeB-109" value="" style="points=[[0.25,0.25,0],[0.5,0,0],[0.75,0.25,0],[1,0.5,0],[0.75,0.75,0],[0.5,1,0],[0.25,0.75,0],[0,0.5,0]];shape=mxgraph.bpmn.gateway2;html=1;verticalLabelPosition=bottom;labelBackgroundColor=#ffffff;verticalAlign=top;align=center;perimeter=rhombusPerimeter;outlineConnect=0;outline=none;symbol=none;gwType=exclusive;" vertex="1" parent="RZlxi_Dk2MY7NXMKiJeB-1">
          <mxGeometry x="832.5" y="290" width="35" height="30" as="geometry" />
        </mxCell>
        <mxCell id="RZlxi_Dk2MY7NXMKiJeB-111" value="&lt;span style=&quot;font-size: 10px;&quot;&gt;5. Акция&lt;/span&gt;" style="rounded=1;whiteSpace=wrap;html=1;fontSize=12;glass=0;strokeWidth=1;shadow=0;fillColor=#f5f5f5;fontColor=#333333;strokeColor=#666666;" vertex="1" parent="RZlxi_Dk2MY7NXMKiJeB-1">
          <mxGeometry x="810" y="225" width="80" height="40" as="geometry" />
        </mxCell>
        <mxCell id="RZlxi_Dk2MY7NXMKiJeB-119" style="edgeStyle=orthogonalEdgeStyle;rounded=0;orthogonalLoop=1;jettySize=auto;html=1;entryX=1;entryY=0.5;entryDx=0;entryDy=0;exitX=0.5;exitY=1;exitDx=0;exitDy=0;" edge="1" parent="RZlxi_Dk2MY7NXMKiJeB-1" source="RZlxi_Dk2MY7NXMKiJeB-113" target="RZlxi_Dk2MY7NXMKiJeB-117">
          <mxGeometry relative="1" as="geometry" />
        </mxCell>
        <mxCell id="RZlxi_Dk2MY7NXMKiJeB-113" value="&lt;font style=&quot;font-size: 10px;&quot;&gt;Программа лояльности&lt;/font&gt;" style="rounded=1;whiteSpace=wrap;html=1;fontSize=12;glass=0;strokeWidth=1;shadow=0;" vertex="1" parent="RZlxi_Dk2MY7NXMKiJeB-1">
          <mxGeometry x="950" y="350" width="70" height="40" as="geometry" />
        </mxCell>
        <mxCell id="RZlxi_Dk2MY7NXMKiJeB-118" style="edgeStyle=orthogonalEdgeStyle;rounded=0;orthogonalLoop=1;jettySize=auto;html=1;entryX=0;entryY=0.5;entryDx=0;entryDy=0;exitX=0.5;exitY=1;exitDx=0;exitDy=0;" edge="1" parent="RZlxi_Dk2MY7NXMKiJeB-1" source="RZlxi_Dk2MY7NXMKiJeB-114" target="RZlxi_Dk2MY7NXMKiJeB-117">
          <mxGeometry relative="1" as="geometry" />
        </mxCell>
        <mxCell id="RZlxi_Dk2MY7NXMKiJeB-114" value="&lt;font style=&quot;font-size: 10px;&quot;&gt;Блюдо дня&lt;/font&gt;" style="rounded=1;whiteSpace=wrap;html=1;fontSize=12;glass=0;strokeWidth=1;shadow=0;" vertex="1" parent="RZlxi_Dk2MY7NXMKiJeB-1">
          <mxGeometry x="685" y="350" width="70" height="40" as="geometry" />
        </mxCell>
        <mxCell id="RZlxi_Dk2MY7NXMKiJeB-121" style="edgeStyle=orthogonalEdgeStyle;rounded=0;orthogonalLoop=1;jettySize=auto;html=1;entryX=1;entryY=0.5;entryDx=0;entryDy=0;exitX=0.5;exitY=1;exitDx=0;exitDy=0;" edge="1" parent="RZlxi_Dk2MY7NXMKiJeB-1" source="RZlxi_Dk2MY7NXMKiJeB-117" target="RZlxi_Dk2MY7NXMKiJeB-120">
          <mxGeometry relative="1" as="geometry" />
        </mxCell>
        <mxCell id="RZlxi_Dk2MY7NXMKiJeB-117" value="&lt;span style=&quot;font-size: 10px;&quot;&gt;6. Подготовка чека&lt;/span&gt;" style="rounded=1;whiteSpace=wrap;html=1;fontSize=12;glass=0;strokeWidth=1;shadow=0;fillColor=#f5f5f5;fontColor=#333333;strokeColor=#666666;" vertex="1" parent="RZlxi_Dk2MY7NXMKiJeB-1">
          <mxGeometry x="810" y="423" width="80" height="40" as="geometry" />
        </mxCell>
        <mxCell id="RZlxi_Dk2MY7NXMKiJeB-126" style="edgeStyle=orthogonalEdgeStyle;rounded=0;orthogonalLoop=1;jettySize=auto;html=1;" edge="1" parent="RZlxi_Dk2MY7NXMKiJeB-1" source="RZlxi_Dk2MY7NXMKiJeB-120" target="RZlxi_Dk2MY7NXMKiJeB-125">
          <mxGeometry relative="1" as="geometry" />
        </mxCell>
        <mxCell id="RZlxi_Dk2MY7NXMKiJeB-120" value="&lt;span style=&quot;font-size: 10px;&quot;&gt;7. Оплата&lt;/span&gt;" style="rounded=1;whiteSpace=wrap;html=1;fontSize=12;glass=0;strokeWidth=1;shadow=0;fillColor=#f5f5f5;fontColor=#333333;strokeColor=#666666;" vertex="1" parent="RZlxi_Dk2MY7NXMKiJeB-1">
          <mxGeometry x="680" y="490" width="80" height="40" as="geometry" />
        </mxCell>
        <mxCell id="RZlxi_Dk2MY7NXMKiJeB-124" style="edgeStyle=orthogonalEdgeStyle;rounded=0;orthogonalLoop=1;jettySize=auto;html=1;entryX=0.5;entryY=0;entryDx=0;entryDy=0;" edge="1" parent="RZlxi_Dk2MY7NXMKiJeB-1" source="RZlxi_Dk2MY7NXMKiJeB-122" target="RZlxi_Dk2MY7NXMKiJeB-117">
          <mxGeometry relative="1" as="geometry" />
        </mxCell>
        <mxCell id="RZlxi_Dk2MY7NXMKiJeB-122" value="&lt;font style=&quot;font-size: 10px;&quot;&gt;Без акции&lt;/font&gt;" style="rounded=1;whiteSpace=wrap;html=1;fontSize=12;glass=0;strokeWidth=1;shadow=0;" vertex="1" parent="RZlxi_Dk2MY7NXMKiJeB-1">
          <mxGeometry x="815" y="350" width="70" height="40" as="geometry" />
        </mxCell>
        <mxCell id="RZlxi_Dk2MY7NXMKiJeB-128" style="edgeStyle=orthogonalEdgeStyle;rounded=0;orthogonalLoop=1;jettySize=auto;html=1;" edge="1" parent="RZlxi_Dk2MY7NXMKiJeB-1" source="RZlxi_Dk2MY7NXMKiJeB-125" target="RZlxi_Dk2MY7NXMKiJeB-127">
          <mxGeometry relative="1" as="geometry" />
        </mxCell>
        <mxCell id="RZlxi_Dk2MY7NXMKiJeB-125" value="&lt;span style=&quot;font-size: 10px;&quot;&gt;8. Обратная связь&lt;/span&gt;" style="rounded=1;whiteSpace=wrap;html=1;fontSize=12;glass=0;strokeWidth=1;shadow=0;fillColor=#f5f5f5;fontColor=#333333;strokeColor=#666666;" vertex="1" parent="RZlxi_Dk2MY7NXMKiJeB-1">
          <mxGeometry x="540" y="490" width="80" height="40" as="geometry" />
        </mxCell>
        <mxCell id="RZlxi_Dk2MY7NXMKiJeB-127" value="" style="points=[[0.145,0.145,0],[0.5,0,0],[0.855,0.145,0],[1,0.5,0],[0.855,0.855,0],[0.5,1,0],[0.145,0.855,0],[0,0.5,0]];shape=mxgraph.bpmn.event;html=1;verticalLabelPosition=bottom;labelBackgroundColor=#ffffff;verticalAlign=top;align=center;perimeter=ellipsePerimeter;outlineConnect=0;aspect=fixed;outline=end;symbol=terminate2;" vertex="1" parent="RZlxi_Dk2MY7NXMKiJeB-1">
          <mxGeometry x="420" y="492.5" width="35" height="35" as="geometry" />
        </mxCell>
        <mxCell id="CY9nDlcLnJ8eAF89hBbP-1" value="" style="swimlane;html=1;startSize=20;fontStyle=0;collapsible=0;horizontal=0;swimlaneLine=1;swimlaneFillColor=#ffffff;strokeWidth=2;whiteSpace=wrap;" vertex="1" parent="1">
          <mxGeometry x="1710" y="1220" width="1150" height="590" as="geometry" />
        </mxCell>
        <mxCell id="CY9nDlcLnJ8eAF89hBbP-2" style="edgeStyle=orthogonalEdgeStyle;rounded=0;orthogonalLoop=1;jettySize=auto;html=1;entryX=0;entryY=0.5;entryDx=0;entryDy=0;" edge="1" parent="CY9nDlcLnJ8eAF89hBbP-1" source="CY9nDlcLnJ8eAF89hBbP-3" target="CY9nDlcLnJ8eAF89hBbP-4">
          <mxGeometry relative="1" as="geometry">
            <mxPoint x="140" y="160" as="targetPoint" />
          </mxGeometry>
        </mxCell>
        <mxCell id="CY9nDlcLnJ8eAF89hBbP-3" value="" style="points=[[0.145,0.145,0],[0.5,0,0],[0.855,0.145,0],[1,0.5,0],[0.855,0.855,0],[0.5,1,0],[0.145,0.855,0],[0,0.5,0]];shape=mxgraph.bpmn.event;html=1;verticalLabelPosition=bottom;labelBackgroundColor=#ffffff;verticalAlign=top;align=center;perimeter=ellipsePerimeter;outlineConnect=0;aspect=fixed;outline=standard;symbol=general;fillColor=#60a917;fontColor=#ffffff;strokeColor=#2D7600;" vertex="1" parent="CY9nDlcLnJ8eAF89hBbP-1">
          <mxGeometry x="40" y="140" width="40" height="40" as="geometry" />
        </mxCell>
        <mxCell id="CY9nDlcLnJ8eAF89hBbP-4" value="&lt;font style=&quot;font-size: 10px;&quot;&gt;1. Банк идей&lt;/font&gt;" style="rounded=1;whiteSpace=wrap;html=1;fontSize=12;glass=0;strokeWidth=1;shadow=0;fillColor=#f5f5f5;fontColor=#333333;strokeColor=#666666;" vertex="1" parent="CY9nDlcLnJ8eAF89hBbP-1">
          <mxGeometry x="120" y="137.5" width="80" height="45" as="geometry" />
        </mxCell>
        <UserObject label="Корпоративная платформа" placeholders="1" name="Variable" id="CY9nDlcLnJ8eAF89hBbP-5">
          <mxCell style="text;html=1;strokeColor=none;fillColor=none;align=center;verticalAlign=middle;whiteSpace=wrap;overflow=hidden;rotation=-90;" vertex="1" parent="CY9nDlcLnJ8eAF89hBbP-1">
            <mxGeometry x="-85" y="235" width="190" height="20" as="geometry" />
          </mxCell>
        </UserObject>
        <mxCell id="CY9nDlcLnJ8eAF89hBbP-6" style="edgeStyle=orthogonalEdgeStyle;rounded=0;orthogonalLoop=1;jettySize=auto;html=1;" edge="1" parent="CY9nDlcLnJ8eAF89hBbP-1" source="CY9nDlcLnJ8eAF89hBbP-7" target="CY9nDlcLnJ8eAF89hBbP-20">
          <mxGeometry relative="1" as="geometry" />
        </mxCell>
        <mxCell id="CY9nDlcLnJ8eAF89hBbP-7" value="&lt;font style=&quot;font-size: 10px;&quot;&gt;Проверить доступные места&lt;/font&gt;" style="rounded=1;whiteSpace=wrap;html=1;fontSize=12;glass=0;strokeWidth=1;shadow=0;" vertex="1" parent="CY9nDlcLnJ8eAF89hBbP-1">
          <mxGeometry x="310" y="140" width="70" height="40" as="geometry" />
        </mxCell>
        <mxCell id="CY9nDlcLnJ8eAF89hBbP-8" style="edgeStyle=orthogonalEdgeStyle;rounded=0;orthogonalLoop=1;jettySize=auto;html=1;entryX=0;entryY=0.5;entryDx=0;entryDy=0;exitX=0.5;exitY=1;exitDx=0;exitDy=0;exitPerimeter=0;" edge="1" parent="CY9nDlcLnJ8eAF89hBbP-1" source="CY9nDlcLnJ8eAF89hBbP-13" target="CY9nDlcLnJ8eAF89hBbP-34">
          <mxGeometry relative="1" as="geometry" />
        </mxCell>
        <mxCell id="CY9nDlcLnJ8eAF89hBbP-9" value="Вынос" style="edgeLabel;html=1;align=center;verticalAlign=middle;resizable=0;points=[];" vertex="1" connectable="0" parent="CY9nDlcLnJ8eAF89hBbP-8">
          <mxGeometry x="0.3017" y="-3" relative="1" as="geometry">
            <mxPoint x="14" y="-3" as="offset" />
          </mxGeometry>
        </mxCell>
        <mxCell id="CY9nDlcLnJ8eAF89hBbP-10" value="Нет" style="edgeStyle=orthogonalEdgeStyle;rounded=0;orthogonalLoop=1;jettySize=auto;html=1;entryX=0;entryY=0.5;entryDx=0;entryDy=0;" edge="1" parent="CY9nDlcLnJ8eAF89hBbP-1" source="CY9nDlcLnJ8eAF89hBbP-13" target="CY9nDlcLnJ8eAF89hBbP-7">
          <mxGeometry x="-0.3333" relative="1" as="geometry">
            <mxPoint as="offset" />
          </mxGeometry>
        </mxCell>
        <mxCell id="CY9nDlcLnJ8eAF89hBbP-11" style="edgeStyle=orthogonalEdgeStyle;rounded=0;orthogonalLoop=1;jettySize=auto;html=1;entryX=0;entryY=0.5;entryDx=0;entryDy=0;exitX=0.5;exitY=0;exitDx=0;exitDy=0;exitPerimeter=0;" edge="1" parent="CY9nDlcLnJ8eAF89hBbP-1" source="CY9nDlcLnJ8eAF89hBbP-13" target="CY9nDlcLnJ8eAF89hBbP-16">
          <mxGeometry relative="1" as="geometry" />
        </mxCell>
        <mxCell id="CY9nDlcLnJ8eAF89hBbP-12" value="Да" style="edgeLabel;html=1;align=center;verticalAlign=middle;resizable=0;points=[];" vertex="1" connectable="0" parent="CY9nDlcLnJ8eAF89hBbP-11">
          <mxGeometry x="0.3151" y="1" relative="1" as="geometry">
            <mxPoint x="11" y="1" as="offset" />
          </mxGeometry>
        </mxCell>
        <mxCell id="CY9nDlcLnJ8eAF89hBbP-13" value="" style="points=[[0.25,0.25,0],[0.5,0,0],[0.75,0.25,0],[1,0.5,0],[0.75,0.75,0],[0.5,1,0],[0.25,0.75,0],[0,0.5,0]];shape=mxgraph.bpmn.gateway2;html=1;verticalLabelPosition=bottom;labelBackgroundColor=#ffffff;verticalAlign=top;align=center;perimeter=rhombusPerimeter;outlineConnect=0;outline=none;symbol=none;gwType=exclusive;" vertex="1" parent="CY9nDlcLnJ8eAF89hBbP-1">
          <mxGeometry x="230" y="145" width="35" height="30" as="geometry" />
        </mxCell>
        <mxCell id="CY9nDlcLnJ8eAF89hBbP-14" value="" style="edgeStyle=orthogonalEdgeStyle;rounded=0;orthogonalLoop=1;jettySize=auto;html=1;fontSize=8;entryX=0;entryY=0.5;entryDx=0;entryDy=0;entryPerimeter=0;exitX=1;exitY=0.5;exitDx=0;exitDy=0;" edge="1" parent="CY9nDlcLnJ8eAF89hBbP-1" source="CY9nDlcLnJ8eAF89hBbP-4" target="CY9nDlcLnJ8eAF89hBbP-13">
          <mxGeometry relative="1" as="geometry">
            <mxPoint x="380" y="115" as="sourcePoint" />
            <mxPoint x="270" y="75" as="targetPoint" />
            <Array as="points" />
          </mxGeometry>
        </mxCell>
        <mxCell id="CY9nDlcLnJ8eAF89hBbP-15" style="edgeStyle=orthogonalEdgeStyle;rounded=0;orthogonalLoop=1;jettySize=auto;html=1;entryX=0.5;entryY=0;entryDx=0;entryDy=0;" edge="1" parent="CY9nDlcLnJ8eAF89hBbP-1" source="CY9nDlcLnJ8eAF89hBbP-16" target="CY9nDlcLnJ8eAF89hBbP-20">
          <mxGeometry relative="1" as="geometry" />
        </mxCell>
        <mxCell id="CY9nDlcLnJ8eAF89hBbP-16" value="&lt;font style=&quot;font-size: 10px;&quot;&gt;Подтвердить&lt;/font&gt;" style="rounded=1;whiteSpace=wrap;html=1;fontSize=12;glass=0;strokeWidth=1;shadow=0;" vertex="1" parent="CY9nDlcLnJ8eAF89hBbP-1">
          <mxGeometry x="310" y="68" width="70" height="40" as="geometry" />
        </mxCell>
        <mxCell id="CY9nDlcLnJ8eAF89hBbP-17" value="&lt;font style=&quot;font-size: 8px;&quot;&gt;Формат заведения: кафе-ресторан, вместимость зала до 100 человек, в зале свободная посадка.&lt;/font&gt;&lt;div style=&quot;text-align: justify;&quot;&gt;&lt;/div&gt;" style="shape=note;whiteSpace=wrap;html=1;backgroundOutline=1;fontColor=#000000;darkOpacity=0.05;fillColor=#FFF9B2;strokeColor=none;fillStyle=solid;direction=west;gradientDirection=north;gradientColor=#FFF2A1;shadow=1;size=20;pointerEvents=1;" vertex="1" parent="CY9nDlcLnJ8eAF89hBbP-1">
          <mxGeometry x="170" y="18" width="130" height="50" as="geometry" />
        </mxCell>
        <mxCell id="CY9nDlcLnJ8eAF89hBbP-18" value="" style="endArrow=none;html=1;rounded=0;fontSize=8;entryX=0.99;entryY=0.512;entryDx=0;entryDy=0;entryPerimeter=0;" edge="1" parent="CY9nDlcLnJ8eAF89hBbP-1" source="CY9nDlcLnJ8eAF89hBbP-4" target="CY9nDlcLnJ8eAF89hBbP-17">
          <mxGeometry width="50" height="50" relative="1" as="geometry">
            <mxPoint x="585" y="220" as="sourcePoint" />
            <mxPoint x="610" y="175" as="targetPoint" />
            <Array as="points" />
          </mxGeometry>
        </mxCell>
        <mxCell id="CY9nDlcLnJ8eAF89hBbP-19" style="edgeStyle=orthogonalEdgeStyle;rounded=0;orthogonalLoop=1;jettySize=auto;html=1;entryX=0;entryY=0.5;entryDx=0;entryDy=0;entryPerimeter=0;" edge="1" parent="CY9nDlcLnJ8eAF89hBbP-1" source="CY9nDlcLnJ8eAF89hBbP-20" target="CY9nDlcLnJ8eAF89hBbP-23">
          <mxGeometry relative="1" as="geometry" />
        </mxCell>
        <mxCell id="CY9nDlcLnJ8eAF89hBbP-20" value="&lt;font style=&quot;font-size: 10px;&quot;&gt;&lt;font style=&quot;&quot;&gt;2. Заказ через&lt;/font&gt;&lt;/font&gt;" style="rounded=1;whiteSpace=wrap;html=1;fontSize=12;glass=0;strokeWidth=1;shadow=0;fillColor=#f5f5f5;fontColor=#333333;strokeColor=#666666;" vertex="1" parent="CY9nDlcLnJ8eAF89hBbP-1">
          <mxGeometry x="420" y="140" width="80" height="40" as="geometry" />
        </mxCell>
        <mxCell id="CY9nDlcLnJ8eAF89hBbP-21" style="edgeStyle=orthogonalEdgeStyle;rounded=0;orthogonalLoop=1;jettySize=auto;html=1;entryX=0;entryY=0.5;entryDx=0;entryDy=0;exitX=0.5;exitY=0;exitDx=0;exitDy=0;exitPerimeter=0;" edge="1" parent="CY9nDlcLnJ8eAF89hBbP-1" source="CY9nDlcLnJ8eAF89hBbP-23" target="CY9nDlcLnJ8eAF89hBbP-25">
          <mxGeometry relative="1" as="geometry" />
        </mxCell>
        <mxCell id="CY9nDlcLnJ8eAF89hBbP-22" style="edgeStyle=orthogonalEdgeStyle;rounded=0;orthogonalLoop=1;jettySize=auto;html=1;entryX=0;entryY=0.5;entryDx=0;entryDy=0;exitX=0.5;exitY=1;exitDx=0;exitDy=0;exitPerimeter=0;" edge="1" parent="CY9nDlcLnJ8eAF89hBbP-1" source="CY9nDlcLnJ8eAF89hBbP-23" target="CY9nDlcLnJ8eAF89hBbP-27">
          <mxGeometry relative="1" as="geometry" />
        </mxCell>
        <mxCell id="CY9nDlcLnJ8eAF89hBbP-23" value="" style="points=[[0.25,0.25,0],[0.5,0,0],[0.75,0.25,0],[1,0.5,0],[0.75,0.75,0],[0.5,1,0],[0.25,0.75,0],[0,0.5,0]];shape=mxgraph.bpmn.gateway2;html=1;verticalLabelPosition=bottom;labelBackgroundColor=#ffffff;verticalAlign=top;align=center;perimeter=rhombusPerimeter;outlineConnect=0;outline=none;symbol=none;gwType=exclusive;" vertex="1" parent="CY9nDlcLnJ8eAF89hBbP-1">
          <mxGeometry x="540" y="145" width="35" height="30" as="geometry" />
        </mxCell>
        <mxCell id="CY9nDlcLnJ8eAF89hBbP-24" style="edgeStyle=orthogonalEdgeStyle;rounded=0;orthogonalLoop=1;jettySize=auto;html=1;entryX=0.5;entryY=0;entryDx=0;entryDy=0;" edge="1" parent="CY9nDlcLnJ8eAF89hBbP-1" source="CY9nDlcLnJ8eAF89hBbP-25" target="CY9nDlcLnJ8eAF89hBbP-29">
          <mxGeometry relative="1" as="geometry" />
        </mxCell>
        <mxCell id="CY9nDlcLnJ8eAF89hBbP-25" value="&lt;font style=&quot;font-size: 10px;&quot;&gt;Терминал самообслуживания&lt;/font&gt;" style="rounded=1;whiteSpace=wrap;html=1;fontSize=12;glass=0;strokeWidth=1;shadow=0;" vertex="1" parent="CY9nDlcLnJ8eAF89hBbP-1">
          <mxGeometry x="600" y="68" width="90" height="40" as="geometry" />
        </mxCell>
        <mxCell id="CY9nDlcLnJ8eAF89hBbP-26" style="edgeStyle=orthogonalEdgeStyle;rounded=0;orthogonalLoop=1;jettySize=auto;html=1;" edge="1" parent="CY9nDlcLnJ8eAF89hBbP-1" source="CY9nDlcLnJ8eAF89hBbP-27" target="CY9nDlcLnJ8eAF89hBbP-29">
          <mxGeometry relative="1" as="geometry" />
        </mxCell>
        <mxCell id="CY9nDlcLnJ8eAF89hBbP-27" value="&lt;font style=&quot;font-size: 10px;&quot;&gt;Касса&lt;/font&gt;" style="rounded=1;whiteSpace=wrap;html=1;fontSize=12;glass=0;strokeWidth=1;shadow=0;" vertex="1" parent="CY9nDlcLnJ8eAF89hBbP-1">
          <mxGeometry x="600" y="210" width="90" height="40" as="geometry" />
        </mxCell>
        <mxCell id="CY9nDlcLnJ8eAF89hBbP-28" style="edgeStyle=orthogonalEdgeStyle;rounded=0;orthogonalLoop=1;jettySize=auto;html=1;" edge="1" parent="CY9nDlcLnJ8eAF89hBbP-1" source="CY9nDlcLnJ8eAF89hBbP-29" target="CY9nDlcLnJ8eAF89hBbP-32">
          <mxGeometry relative="1" as="geometry" />
        </mxCell>
        <mxCell id="CY9nDlcLnJ8eAF89hBbP-29" value="&lt;span style=&quot;font-size: 10px;&quot;&gt;3. Показ меню&lt;/span&gt;" style="rounded=1;whiteSpace=wrap;html=1;fontSize=12;glass=0;strokeWidth=1;shadow=0;fillColor=#f5f5f5;fontColor=#333333;strokeColor=#666666;" vertex="1" parent="CY9nDlcLnJ8eAF89hBbP-1">
          <mxGeometry x="695" y="145" width="80" height="40" as="geometry" />
        </mxCell>
        <mxCell id="CY9nDlcLnJ8eAF89hBbP-30" style="edgeStyle=orthogonalEdgeStyle;rounded=0;orthogonalLoop=1;jettySize=auto;html=1;entryX=0.5;entryY=0;entryDx=0;entryDy=0;entryPerimeter=0;exitX=0.5;exitY=1;exitDx=0;exitDy=0;" edge="1" parent="CY9nDlcLnJ8eAF89hBbP-1" source="CY9nDlcLnJ8eAF89hBbP-39" target="CY9nDlcLnJ8eAF89hBbP-38">
          <mxGeometry relative="1" as="geometry" />
        </mxCell>
        <mxCell id="CY9nDlcLnJ8eAF89hBbP-31" style="edgeStyle=orthogonalEdgeStyle;rounded=0;orthogonalLoop=1;jettySize=auto;html=1;entryX=0.5;entryY=0;entryDx=0;entryDy=0;" edge="1" parent="CY9nDlcLnJ8eAF89hBbP-1" source="CY9nDlcLnJ8eAF89hBbP-32" target="CY9nDlcLnJ8eAF89hBbP-39">
          <mxGeometry relative="1" as="geometry" />
        </mxCell>
        <mxCell id="CY9nDlcLnJ8eAF89hBbP-32" value="&lt;span style=&quot;font-size: 10px;&quot;&gt;4. Заказ принят&lt;/span&gt;" style="rounded=1;whiteSpace=wrap;html=1;fontSize=12;glass=0;strokeWidth=1;shadow=0;fillColor=#f5f5f5;fontColor=#333333;strokeColor=#666666;" vertex="1" parent="CY9nDlcLnJ8eAF89hBbP-1">
          <mxGeometry x="810" y="145" width="80" height="40" as="geometry" />
        </mxCell>
        <mxCell id="CY9nDlcLnJ8eAF89hBbP-33" style="edgeStyle=orthogonalEdgeStyle;rounded=0;orthogonalLoop=1;jettySize=auto;html=1;entryX=0.5;entryY=1;entryDx=0;entryDy=0;" edge="1" parent="CY9nDlcLnJ8eAF89hBbP-1" source="CY9nDlcLnJ8eAF89hBbP-34" target="CY9nDlcLnJ8eAF89hBbP-20">
          <mxGeometry relative="1" as="geometry" />
        </mxCell>
        <mxCell id="CY9nDlcLnJ8eAF89hBbP-34" value="&lt;font style=&quot;font-size: 10px;&quot;&gt;На вынос&lt;/font&gt;" style="rounded=1;whiteSpace=wrap;html=1;fontSize=12;glass=0;strokeWidth=1;shadow=0;" vertex="1" parent="CY9nDlcLnJ8eAF89hBbP-1">
          <mxGeometry x="310" y="219" width="70" height="40" as="geometry" />
        </mxCell>
        <mxCell id="CY9nDlcLnJ8eAF89hBbP-35" style="edgeStyle=orthogonalEdgeStyle;rounded=0;orthogonalLoop=1;jettySize=auto;html=1;entryX=0.5;entryY=0;entryDx=0;entryDy=0;" edge="1" parent="CY9nDlcLnJ8eAF89hBbP-1" source="CY9nDlcLnJ8eAF89hBbP-38" target="CY9nDlcLnJ8eAF89hBbP-41">
          <mxGeometry relative="1" as="geometry" />
        </mxCell>
        <mxCell id="CY9nDlcLnJ8eAF89hBbP-36" style="edgeStyle=orthogonalEdgeStyle;rounded=0;orthogonalLoop=1;jettySize=auto;html=1;entryX=0.5;entryY=0;entryDx=0;entryDy=0;" edge="1" parent="CY9nDlcLnJ8eAF89hBbP-1" source="CY9nDlcLnJ8eAF89hBbP-38" target="CY9nDlcLnJ8eAF89hBbP-43">
          <mxGeometry relative="1" as="geometry" />
        </mxCell>
        <mxCell id="CY9nDlcLnJ8eAF89hBbP-37" style="edgeStyle=orthogonalEdgeStyle;rounded=0;orthogonalLoop=1;jettySize=auto;html=1;entryX=0.5;entryY=0;entryDx=0;entryDy=0;" edge="1" parent="CY9nDlcLnJ8eAF89hBbP-1" source="CY9nDlcLnJ8eAF89hBbP-38" target="CY9nDlcLnJ8eAF89hBbP-49">
          <mxGeometry relative="1" as="geometry" />
        </mxCell>
        <mxCell id="CY9nDlcLnJ8eAF89hBbP-38" value="" style="points=[[0.25,0.25,0],[0.5,0,0],[0.75,0.25,0],[1,0.5,0],[0.75,0.75,0],[0.5,1,0],[0.25,0.75,0],[0,0.5,0]];shape=mxgraph.bpmn.gateway2;html=1;verticalLabelPosition=bottom;labelBackgroundColor=#ffffff;verticalAlign=top;align=center;perimeter=rhombusPerimeter;outlineConnect=0;outline=none;symbol=none;gwType=exclusive;" vertex="1" parent="CY9nDlcLnJ8eAF89hBbP-1">
          <mxGeometry x="832.5" y="290" width="35" height="30" as="geometry" />
        </mxCell>
        <mxCell id="CY9nDlcLnJ8eAF89hBbP-39" value="&lt;span style=&quot;font-size: 10px;&quot;&gt;5. Акция&lt;/span&gt;" style="rounded=1;whiteSpace=wrap;html=1;fontSize=12;glass=0;strokeWidth=1;shadow=0;fillColor=#f5f5f5;fontColor=#333333;strokeColor=#666666;" vertex="1" parent="CY9nDlcLnJ8eAF89hBbP-1">
          <mxGeometry x="810" y="225" width="80" height="40" as="geometry" />
        </mxCell>
        <mxCell id="CY9nDlcLnJ8eAF89hBbP-40" style="edgeStyle=orthogonalEdgeStyle;rounded=0;orthogonalLoop=1;jettySize=auto;html=1;entryX=1;entryY=0.5;entryDx=0;entryDy=0;exitX=0.5;exitY=1;exitDx=0;exitDy=0;" edge="1" parent="CY9nDlcLnJ8eAF89hBbP-1" source="CY9nDlcLnJ8eAF89hBbP-41" target="CY9nDlcLnJ8eAF89hBbP-45">
          <mxGeometry relative="1" as="geometry" />
        </mxCell>
        <mxCell id="CY9nDlcLnJ8eAF89hBbP-41" value="&lt;font style=&quot;font-size: 10px;&quot;&gt;Программа лояльности&lt;/font&gt;" style="rounded=1;whiteSpace=wrap;html=1;fontSize=12;glass=0;strokeWidth=1;shadow=0;" vertex="1" parent="CY9nDlcLnJ8eAF89hBbP-1">
          <mxGeometry x="950" y="350" width="70" height="40" as="geometry" />
        </mxCell>
        <mxCell id="CY9nDlcLnJ8eAF89hBbP-42" style="edgeStyle=orthogonalEdgeStyle;rounded=0;orthogonalLoop=1;jettySize=auto;html=1;entryX=0;entryY=0.5;entryDx=0;entryDy=0;exitX=0.5;exitY=1;exitDx=0;exitDy=0;" edge="1" parent="CY9nDlcLnJ8eAF89hBbP-1" source="CY9nDlcLnJ8eAF89hBbP-43" target="CY9nDlcLnJ8eAF89hBbP-45">
          <mxGeometry relative="1" as="geometry" />
        </mxCell>
        <mxCell id="CY9nDlcLnJ8eAF89hBbP-43" value="&lt;font style=&quot;font-size: 10px;&quot;&gt;Блюдо дня&lt;/font&gt;" style="rounded=1;whiteSpace=wrap;html=1;fontSize=12;glass=0;strokeWidth=1;shadow=0;" vertex="1" parent="CY9nDlcLnJ8eAF89hBbP-1">
          <mxGeometry x="685" y="350" width="70" height="40" as="geometry" />
        </mxCell>
        <mxCell id="CY9nDlcLnJ8eAF89hBbP-44" style="edgeStyle=orthogonalEdgeStyle;rounded=0;orthogonalLoop=1;jettySize=auto;html=1;entryX=1;entryY=0.5;entryDx=0;entryDy=0;exitX=0.5;exitY=1;exitDx=0;exitDy=0;" edge="1" parent="CY9nDlcLnJ8eAF89hBbP-1" source="CY9nDlcLnJ8eAF89hBbP-45" target="CY9nDlcLnJ8eAF89hBbP-47">
          <mxGeometry relative="1" as="geometry" />
        </mxCell>
        <mxCell id="CY9nDlcLnJ8eAF89hBbP-45" value="&lt;span style=&quot;font-size: 10px;&quot;&gt;6. Подготовка чека&lt;/span&gt;" style="rounded=1;whiteSpace=wrap;html=1;fontSize=12;glass=0;strokeWidth=1;shadow=0;fillColor=#f5f5f5;fontColor=#333333;strokeColor=#666666;" vertex="1" parent="CY9nDlcLnJ8eAF89hBbP-1">
          <mxGeometry x="810" y="423" width="80" height="40" as="geometry" />
        </mxCell>
        <mxCell id="CY9nDlcLnJ8eAF89hBbP-46" style="edgeStyle=orthogonalEdgeStyle;rounded=0;orthogonalLoop=1;jettySize=auto;html=1;" edge="1" parent="CY9nDlcLnJ8eAF89hBbP-1" source="CY9nDlcLnJ8eAF89hBbP-47" target="CY9nDlcLnJ8eAF89hBbP-51">
          <mxGeometry relative="1" as="geometry" />
        </mxCell>
        <mxCell id="CY9nDlcLnJ8eAF89hBbP-47" value="&lt;span style=&quot;font-size: 10px;&quot;&gt;7. Оплата&lt;/span&gt;" style="rounded=1;whiteSpace=wrap;html=1;fontSize=12;glass=0;strokeWidth=1;shadow=0;fillColor=#f5f5f5;fontColor=#333333;strokeColor=#666666;" vertex="1" parent="CY9nDlcLnJ8eAF89hBbP-1">
          <mxGeometry x="680" y="490" width="80" height="40" as="geometry" />
        </mxCell>
        <mxCell id="CY9nDlcLnJ8eAF89hBbP-48" style="edgeStyle=orthogonalEdgeStyle;rounded=0;orthogonalLoop=1;jettySize=auto;html=1;entryX=0.5;entryY=0;entryDx=0;entryDy=0;" edge="1" parent="CY9nDlcLnJ8eAF89hBbP-1" source="CY9nDlcLnJ8eAF89hBbP-49" target="CY9nDlcLnJ8eAF89hBbP-45">
          <mxGeometry relative="1" as="geometry" />
        </mxCell>
        <mxCell id="CY9nDlcLnJ8eAF89hBbP-49" value="&lt;font style=&quot;font-size: 10px;&quot;&gt;Без акции&lt;/font&gt;" style="rounded=1;whiteSpace=wrap;html=1;fontSize=12;glass=0;strokeWidth=1;shadow=0;" vertex="1" parent="CY9nDlcLnJ8eAF89hBbP-1">
          <mxGeometry x="815" y="350" width="70" height="40" as="geometry" />
        </mxCell>
        <mxCell id="CY9nDlcLnJ8eAF89hBbP-50" style="edgeStyle=orthogonalEdgeStyle;rounded=0;orthogonalLoop=1;jettySize=auto;html=1;" edge="1" parent="CY9nDlcLnJ8eAF89hBbP-1" source="CY9nDlcLnJ8eAF89hBbP-51" target="CY9nDlcLnJ8eAF89hBbP-52">
          <mxGeometry relative="1" as="geometry" />
        </mxCell>
        <mxCell id="CY9nDlcLnJ8eAF89hBbP-51" value="&lt;span style=&quot;font-size: 10px;&quot;&gt;8. Обратная связь&lt;/span&gt;" style="rounded=1;whiteSpace=wrap;html=1;fontSize=12;glass=0;strokeWidth=1;shadow=0;fillColor=#f5f5f5;fontColor=#333333;strokeColor=#666666;" vertex="1" parent="CY9nDlcLnJ8eAF89hBbP-1">
          <mxGeometry x="540" y="490" width="80" height="40" as="geometry" />
        </mxCell>
        <mxCell id="CY9nDlcLnJ8eAF89hBbP-52" value="" style="points=[[0.145,0.145,0],[0.5,0,0],[0.855,0.145,0],[1,0.5,0],[0.855,0.855,0],[0.5,1,0],[0.145,0.855,0],[0,0.5,0]];shape=mxgraph.bpmn.event;html=1;verticalLabelPosition=bottom;labelBackgroundColor=#ffffff;verticalAlign=top;align=center;perimeter=ellipsePerimeter;outlineConnect=0;aspect=fixed;outline=end;symbol=terminate2;" vertex="1" parent="CY9nDlcLnJ8eAF89hBbP-1">
          <mxGeometry x="420" y="492.5" width="35" height="35" as="geometry" />
        </mxCell>
      </root>
    </mxGraphModel>
  </diagram>
  <diagram id="FyPsJuI55SkX59MvtVfK" name="Страница 3">
    <mxGraphModel dx="408" dy="646" grid="1" gridSize="10" guides="1" tooltips="1" connect="1" arrows="1" fold="1" page="1" pageScale="1" pageWidth="827" pageHeight="1169" math="0" shadow="0">
      <root>
        <mxCell id="0" />
        <mxCell id="1" parent="0" />
        <mxCell id="o3AGPVBWF5X-8ZVsbOnd-1" value="" style="swimlane;html=1;startSize=20;fontStyle=0;collapsible=0;horizontal=0;swimlaneLine=1;swimlaneFillColor=#ffffff;strokeWidth=2;whiteSpace=wrap;" parent="1" vertex="1">
          <mxGeometry x="889.5" y="170" width="1690" height="190" as="geometry" />
        </mxCell>
        <mxCell id="o3AGPVBWF5X-8ZVsbOnd-2" style="edgeStyle=orthogonalEdgeStyle;rounded=0;orthogonalLoop=1;jettySize=auto;html=1;entryX=0;entryY=0.5;entryDx=0;entryDy=0;" parent="o3AGPVBWF5X-8ZVsbOnd-1" source="o3AGPVBWF5X-8ZVsbOnd-3" target="o3AGPVBWF5X-8ZVsbOnd-4" edge="1">
          <mxGeometry relative="1" as="geometry">
            <mxPoint x="150" y="85" as="targetPoint" />
          </mxGeometry>
        </mxCell>
        <mxCell id="o3AGPVBWF5X-8ZVsbOnd-3" value="" style="points=[[0.145,0.145,0],[0.5,0,0],[0.855,0.145,0],[1,0.5,0],[0.855,0.855,0],[0.5,1,0],[0.145,0.855,0],[0,0.5,0]];shape=mxgraph.bpmn.event;html=1;verticalLabelPosition=bottom;labelBackgroundColor=#ffffff;verticalAlign=top;align=center;perimeter=ellipsePerimeter;outlineConnect=0;aspect=fixed;outline=standard;symbol=general;fillColor=#60a917;fontColor=#ffffff;strokeColor=#2D7600;" parent="o3AGPVBWF5X-8ZVsbOnd-1" vertex="1">
          <mxGeometry x="50" y="65" width="40" height="40" as="geometry" />
        </mxCell>
        <mxCell id="o3AGPVBWF5X-8ZVsbOnd-4" value="&lt;font style=&quot;font-size: 10px;&quot;&gt;Подать идею&lt;/font&gt;" style="rounded=1;whiteSpace=wrap;html=1;fontSize=12;glass=0;strokeWidth=1;shadow=0;fillColor=#f5f5f5;fontColor=#333333;strokeColor=#666666;" parent="o3AGPVBWF5X-8ZVsbOnd-1" vertex="1">
          <mxGeometry x="160" y="62.5" width="100" height="45" as="geometry" />
        </mxCell>
        <UserObject label="Сотрудники" placeholders="1" name="Variable" id="o3AGPVBWF5X-8ZVsbOnd-5">
          <mxCell style="text;html=1;strokeColor=none;fillColor=none;align=center;verticalAlign=middle;whiteSpace=wrap;overflow=hidden;rotation=-90;" parent="o3AGPVBWF5X-8ZVsbOnd-1" vertex="1">
            <mxGeometry x="-30" y="90" width="80" height="20" as="geometry" />
          </mxCell>
        </UserObject>
        <mxCell id="o3AGPVBWF5X-8ZVsbOnd-6" value="&lt;span style=&quot;font-size: 10px;&quot;&gt;На доработку&lt;/span&gt;" style="rounded=1;whiteSpace=wrap;html=1;fontSize=12;glass=0;strokeWidth=1;shadow=0;fillColor=#f5f5f5;fontColor=#333333;strokeColor=#666666;" parent="o3AGPVBWF5X-8ZVsbOnd-1" vertex="1">
          <mxGeometry x="430" y="60" width="80" height="50" as="geometry" />
        </mxCell>
        <mxCell id="o3AGPVBWF5X-8ZVsbOnd-7" value="" style="points=[[0.145,0.145,0],[0.5,0,0],[0.855,0.145,0],[1,0.5,0],[0.855,0.855,0],[0.5,1,0],[0.145,0.855,0],[0,0.5,0]];shape=mxgraph.bpmn.gateway2;html=1;verticalLabelPosition=bottom;labelBackgroundColor=#ffffff;verticalAlign=top;align=center;perimeter=rhombusPerimeter;outlineConnect=0;aspect=fixed;outline=standard;symbol=timer;" parent="o3AGPVBWF5X-8ZVsbOnd-1" vertex="1">
          <mxGeometry x="355" y="60" width="50" height="50" as="geometry" />
        </mxCell>
        <mxCell id="o3AGPVBWF5X-8ZVsbOnd-8" value="" style="edgeStyle=orthogonalEdgeStyle;rounded=0;orthogonalLoop=1;jettySize=auto;html=1;fontSize=10;exitX=0;exitY=0.5;exitDx=0;exitDy=0;" parent="o3AGPVBWF5X-8ZVsbOnd-1" source="o3AGPVBWF5X-8ZVsbOnd-6" target="o3AGPVBWF5X-8ZVsbOnd-7" edge="1">
          <mxGeometry relative="1" as="geometry">
            <mxPoint x="530.625" y="170" as="targetPoint" />
          </mxGeometry>
        </mxCell>
        <mxCell id="o3AGPVBWF5X-8ZVsbOnd-9" value="&lt;font style=&quot;font-size: 10px;&quot;&gt;Голосовать/комментировать&lt;/font&gt;" style="rounded=1;whiteSpace=wrap;html=1;fontSize=12;glass=0;strokeWidth=1;shadow=0;fillColor=#f5f5f5;fontColor=#333333;strokeColor=#666666;" parent="o3AGPVBWF5X-8ZVsbOnd-1" vertex="1">
          <mxGeometry x="730" y="52.5" width="100" height="45" as="geometry" />
        </mxCell>
        <mxCell id="GrEtkB3BwLiatl9SDRCj-4" value="" style="swimlane;html=1;startSize=20;fontStyle=0;collapsible=0;horizontal=0;swimlaneLine=0;fillColor=none;whiteSpace=wrap;" vertex="1" parent="o3AGPVBWF5X-8ZVsbOnd-1">
          <mxGeometry y="-50" width="1690" height="50" as="geometry" />
        </mxCell>
        <mxCell id="GrEtkB3BwLiatl9SDRCj-3" value="&lt;b&gt;&lt;font style=&quot;font-size: 14px;&quot;&gt;Битрикс. Корпоративная платформа&lt;/font&gt;&lt;/b&gt;" style="text;strokeColor=none;fillColor=none;align=left;verticalAlign=top;spacingLeft=4;spacingRight=4;overflow=hidden;rotatable=0;points=[[0,0.5],[1,0.5]];portConstraint=eastwest;whiteSpace=wrap;html=1;" vertex="1" parent="GrEtkB3BwLiatl9SDRCj-4">
          <mxGeometry x="75" y="10" width="320" height="30" as="geometry" />
        </mxCell>
        <mxCell id="o3AGPVBWF5X-8ZVsbOnd-10" value="" style="shape=mxgraph.bpmn.swimlane;html=1;startSize=20;horizontal=0;swimlaneLine=1;collapsible=0;fontStyle=0;swimlaneFillColor=#ffffff;strokeWidth=2;isCollection=1;whiteSpace=wrap;" parent="1" vertex="1">
          <mxGeometry x="889.5" y="360" width="1690" height="500" as="geometry" />
        </mxCell>
        <mxCell id="o3AGPVBWF5X-8ZVsbOnd-11" value="" style="swimlane;html=1;startSize=20;fontStyle=0;collapsible=0;horizontal=0;swimlaneLine=1;swimlaneFillColor=#ffffff;strokeWidth=2;whiteSpace=wrap;" parent="1" vertex="1">
          <mxGeometry x="889.5" y="860" width="1690" height="140" as="geometry" />
        </mxCell>
        <UserObject label="Модератор" placeholders="1" name="Variable" id="o3AGPVBWF5X-8ZVsbOnd-12">
          <mxCell style="text;html=1;strokeColor=none;fillColor=none;align=center;verticalAlign=middle;whiteSpace=wrap;overflow=hidden;rotation=-90;" parent="o3AGPVBWF5X-8ZVsbOnd-11" vertex="1">
            <mxGeometry x="-30" y="90" width="80" height="20" as="geometry" />
          </mxCell>
        </UserObject>
        <mxCell id="o3AGPVBWF5X-8ZVsbOnd-13" value="&lt;font style=&quot;font-size: 10px;&quot;&gt;Проверка на одобрение идеи&lt;/font&gt;" style="rounded=1;whiteSpace=wrap;html=1;fontSize=12;glass=0;strokeWidth=1;shadow=0;fillColor=#f5f5f5;fontColor=#333333;strokeColor=#666666;" parent="o3AGPVBWF5X-8ZVsbOnd-11" vertex="1">
          <mxGeometry x="330" y="60" width="100" height="45" as="geometry" />
        </mxCell>
        <mxCell id="o3AGPVBWF5X-8ZVsbOnd-14" value="&lt;span style=&quot;font-size: 10px;&quot;&gt;Заполнение формы по шаблону&lt;br&gt;&lt;/span&gt;" style="rounded=1;whiteSpace=wrap;html=1;fontSize=12;glass=0;strokeWidth=1;shadow=0;fillColor=#f5f5f5;fontColor=#333333;strokeColor=#666666;" parent="1" vertex="1">
          <mxGeometry x="1049.5" y="475" width="100" height="45" as="geometry" />
        </mxCell>
        <UserObject label="Модуль Фабрика идей" placeholders="1" name="Variable" id="o3AGPVBWF5X-8ZVsbOnd-15">
          <mxCell style="text;html=1;strokeColor=none;fillColor=none;align=center;verticalAlign=middle;whiteSpace=wrap;overflow=hidden;rotation=-90;" parent="1" vertex="1">
            <mxGeometry x="810" y="640" width="181" height="20" as="geometry" />
          </mxCell>
        </UserObject>
        <mxCell id="o3AGPVBWF5X-8ZVsbOnd-16" style="edgeStyle=orthogonalEdgeStyle;rounded=0;orthogonalLoop=1;jettySize=auto;html=1;entryX=0.5;entryY=0;entryDx=0;entryDy=0;" parent="1" source="o3AGPVBWF5X-8ZVsbOnd-17" target="o3AGPVBWF5X-8ZVsbOnd-13" edge="1">
          <mxGeometry relative="1" as="geometry" />
        </mxCell>
        <mxCell id="o3AGPVBWF5X-8ZVsbOnd-17" value="&lt;font style=&quot;font-size: 10px;&quot;&gt;Пре-модерация&lt;/font&gt;" style="rounded=1;whiteSpace=wrap;html=1;fontSize=12;glass=0;strokeWidth=1;shadow=0;fillColor=#f5f5f5;fontColor=#333333;strokeColor=#666666;" parent="1" vertex="1">
          <mxGeometry x="1219.5" y="475" width="100" height="45" as="geometry" />
        </mxCell>
        <mxCell id="o3AGPVBWF5X-8ZVsbOnd-18" value="" style="edgeStyle=orthogonalEdgeStyle;rounded=0;orthogonalLoop=1;jettySize=auto;html=1;fontSize=8;exitX=0.5;exitY=1;exitDx=0;exitDy=0;entryX=0.5;entryY=0;entryDx=0;entryDy=0;" parent="1" source="o3AGPVBWF5X-8ZVsbOnd-4" target="o3AGPVBWF5X-8ZVsbOnd-14" edge="1">
          <mxGeometry relative="1" as="geometry">
            <mxPoint x="1109.5" y="515" as="sourcePoint" />
            <mxPoint x="1109.5" y="660" as="targetPoint" />
            <Array as="points" />
          </mxGeometry>
        </mxCell>
        <mxCell id="o3AGPVBWF5X-8ZVsbOnd-20" value="отправка идей" style="edgeStyle=orthogonalEdgeStyle;rounded=0;orthogonalLoop=1;jettySize=auto;html=1;fontSize=8;exitX=1;exitY=0.5;exitDx=0;exitDy=0;entryX=0;entryY=0.5;entryDx=0;entryDy=0;" parent="1" source="o3AGPVBWF5X-8ZVsbOnd-14" target="o3AGPVBWF5X-8ZVsbOnd-17" edge="1">
          <mxGeometry x="-0.1286" y="8" relative="1" as="geometry">
            <mxPoint x="1119.5" y="525" as="sourcePoint" />
            <mxPoint x="1119.5" y="670" as="targetPoint" />
            <Array as="points" />
            <mxPoint y="1" as="offset" />
          </mxGeometry>
        </mxCell>
        <mxCell id="o3AGPVBWF5X-8ZVsbOnd-21" value="&lt;font style=&quot;font-size: 10px;&quot;&gt;Отображение новой идеи&lt;/font&gt;" style="rounded=1;whiteSpace=wrap;html=1;fontSize=12;glass=0;strokeWidth=1;shadow=0;fillColor=#f5f5f5;fontColor=#333333;strokeColor=#666666;" parent="1" vertex="1">
          <mxGeometry x="1619.5" y="475" width="100" height="45" as="geometry" />
        </mxCell>
        <mxCell id="o3AGPVBWF5X-8ZVsbOnd-22" style="edgeStyle=orthogonalEdgeStyle;rounded=0;orthogonalLoop=1;jettySize=auto;html=1;entryX=0.5;entryY=0;entryDx=0;entryDy=0;" parent="1" source="o3AGPVBWF5X-8ZVsbOnd-7" target="o3AGPVBWF5X-8ZVsbOnd-17" edge="1">
          <mxGeometry relative="1" as="geometry" />
        </mxCell>
        <mxCell id="o3AGPVBWF5X-8ZVsbOnd-23" style="edgeStyle=orthogonalEdgeStyle;rounded=0;orthogonalLoop=1;jettySize=auto;html=1;exitX=1;exitY=0.5;exitDx=0;exitDy=0;entryX=0;entryY=0.5;entryDx=0;entryDy=0;" parent="1" source="o3AGPVBWF5X-8ZVsbOnd-21" target="o3AGPVBWF5X-8ZVsbOnd-37" edge="1">
          <mxGeometry relative="1" as="geometry" />
        </mxCell>
        <mxCell id="o3AGPVBWF5X-8ZVsbOnd-24" style="edgeStyle=orthogonalEdgeStyle;rounded=0;orthogonalLoop=1;jettySize=auto;html=1;fontSize=10;exitX=1;exitY=0.5;exitDx=0;exitDy=0;exitPerimeter=0;" parent="1" source="o3AGPVBWF5X-8ZVsbOnd-34" target="o3AGPVBWF5X-8ZVsbOnd-38" edge="1">
          <mxGeometry relative="1" as="geometry">
            <mxPoint x="1549.5" y="460" as="sourcePoint" />
          </mxGeometry>
        </mxCell>
        <mxCell id="o3AGPVBWF5X-8ZVsbOnd-25" value="" style="swimlane;html=1;startSize=20;fontStyle=0;collapsible=0;horizontal=0;swimlaneLine=1;swimlaneFillColor=#ffffff;strokeWidth=2;whiteSpace=wrap;" parent="1" vertex="1">
          <mxGeometry x="889.5" y="1000" width="1690" height="140" as="geometry" />
        </mxCell>
        <mxCell id="o3AGPVBWF5X-8ZVsbOnd-26" value="&lt;font style=&quot;font-size: 10px;&quot;&gt;На утверждение&lt;/font&gt;" style="rounded=1;whiteSpace=wrap;html=1;fontSize=12;glass=0;strokeWidth=1;shadow=0;" parent="o3AGPVBWF5X-8ZVsbOnd-25" vertex="1">
          <mxGeometry x="1190" y="50" width="100" height="40" as="geometry" />
        </mxCell>
        <UserObject label="Дироектор" placeholders="1" name="Variable" id="o3AGPVBWF5X-8ZVsbOnd-27">
          <mxCell style="text;html=1;strokeColor=none;fillColor=none;align=center;verticalAlign=middle;whiteSpace=wrap;overflow=hidden;rotation=-90;" parent="o3AGPVBWF5X-8ZVsbOnd-25" vertex="1">
            <mxGeometry x="-55" y="60" width="130" height="20" as="geometry" />
          </mxCell>
        </UserObject>
        <mxCell id="o3AGPVBWF5X-8ZVsbOnd-28" value="Одобрено" style="edgeStyle=orthogonalEdgeStyle;rounded=0;orthogonalLoop=1;jettySize=auto;html=1;" parent="1" source="o3AGPVBWF5X-8ZVsbOnd-30" target="o3AGPVBWF5X-8ZVsbOnd-21" edge="1">
          <mxGeometry relative="1" as="geometry" />
        </mxCell>
        <mxCell id="o3AGPVBWF5X-8ZVsbOnd-29" value="Отклонена" style="edgeStyle=orthogonalEdgeStyle;rounded=0;orthogonalLoop=1;jettySize=auto;html=1;entryX=0;entryY=0.5;entryDx=0;entryDy=0;entryPerimeter=0;exitX=0.5;exitY=0;exitDx=0;exitDy=0;exitPerimeter=0;" parent="1" source="o3AGPVBWF5X-8ZVsbOnd-30" target="o3AGPVBWF5X-8ZVsbOnd-34" edge="1">
          <mxGeometry x="-0.5273" y="-2" relative="1" as="geometry">
            <mxPoint as="offset" />
          </mxGeometry>
        </mxCell>
        <mxCell id="o3AGPVBWF5X-8ZVsbOnd-30" value="" style="points=[[0.25,0.25,0],[0.5,0,0],[0.75,0.25,0],[1,0.5,0],[0.75,0.75,0],[0.5,1,0],[0.25,0.75,0],[0,0.5,0]];shape=mxgraph.bpmn.gateway2;html=1;verticalLabelPosition=bottom;labelBackgroundColor=#ffffff;verticalAlign=top;align=center;perimeter=rhombusPerimeter;outlineConnect=0;outline=none;symbol=none;gwType=exclusive;" parent="1" vertex="1">
          <mxGeometry x="1409.5" y="482.5" width="35" height="30" as="geometry" />
        </mxCell>
        <mxCell id="o3AGPVBWF5X-8ZVsbOnd-31" style="edgeStyle=orthogonalEdgeStyle;rounded=0;orthogonalLoop=1;jettySize=auto;html=1;entryX=0.5;entryY=1;entryDx=0;entryDy=0;entryPerimeter=0;" parent="1" source="o3AGPVBWF5X-8ZVsbOnd-13" target="o3AGPVBWF5X-8ZVsbOnd-30" edge="1">
          <mxGeometry relative="1" as="geometry" />
        </mxCell>
        <mxCell id="o3AGPVBWF5X-8ZVsbOnd-32" value="" style="edgeStyle=orthogonalEdgeStyle;rounded=0;orthogonalLoop=1;jettySize=auto;html=1;fontSize=8;entryX=0.5;entryY=1;entryDx=0;entryDy=0;exitX=0;exitY=0.5;exitDx=0;exitDy=0;exitPerimeter=0;" parent="1" source="o3AGPVBWF5X-8ZVsbOnd-30" target="o3AGPVBWF5X-8ZVsbOnd-6" edge="1">
          <mxGeometry relative="1" as="geometry">
            <mxPoint x="1387" y="275" as="sourcePoint" />
            <mxPoint x="1239.5" y="503" as="targetPoint" />
            <Array as="points" />
          </mxGeometry>
        </mxCell>
        <mxCell id="o3AGPVBWF5X-8ZVsbOnd-33" value="На доработку" style="edgeLabel;html=1;align=center;verticalAlign=middle;resizable=0;points=[];" parent="o3AGPVBWF5X-8ZVsbOnd-32" vertex="1" connectable="0">
          <mxGeometry x="0.0034" y="1" relative="1" as="geometry">
            <mxPoint x="1" y="15" as="offset" />
          </mxGeometry>
        </mxCell>
        <mxCell id="o3AGPVBWF5X-8ZVsbOnd-34" value="Ошибка: Срок заявки истек/Отклонена" style="points=[[0.25,0,0],[0.5,0,0],[0.75,0,0],[1,0.25,0],[1,0.5,0],[1,0.75,0],[0.75,1,0],[0.5,1,0],[0.25,1,0],[0,0.75,0],[0,0.5,0],[0,0.25,0]];shape=mxgraph.bpmn.task;whiteSpace=wrap;rectStyle=rounded;size=10;html=1;taskMarker=abstract;fontSize=10;" parent="1" vertex="1">
          <mxGeometry x="1487" y="380" width="102.5" height="50" as="geometry" />
        </mxCell>
        <mxCell id="o3AGPVBWF5X-8ZVsbOnd-35" style="edgeStyle=orthogonalEdgeStyle;rounded=0;orthogonalLoop=1;jettySize=auto;html=1;entryX=0.5;entryY=0;entryDx=0;entryDy=0;entryPerimeter=0;" parent="1" source="o3AGPVBWF5X-8ZVsbOnd-7" target="o3AGPVBWF5X-8ZVsbOnd-34" edge="1">
          <mxGeometry relative="1" as="geometry">
            <Array as="points">
              <mxPoint x="1270" y="210" />
              <mxPoint x="1538" y="210" />
            </Array>
          </mxGeometry>
        </mxCell>
        <mxCell id="o3AGPVBWF5X-8ZVsbOnd-36" style="edgeStyle=orthogonalEdgeStyle;rounded=0;orthogonalLoop=1;jettySize=auto;html=1;entryX=0;entryY=0.5;entryDx=0;entryDy=0;" parent="1" source="o3AGPVBWF5X-8ZVsbOnd-37" target="o3AGPVBWF5X-8ZVsbOnd-42" edge="1">
          <mxGeometry relative="1" as="geometry" />
        </mxCell>
        <mxCell id="o3AGPVBWF5X-8ZVsbOnd-37" value="&lt;font style=&quot;font-size: 10px;&quot;&gt;Расчёт корпоративной валюты&lt;/font&gt;" style="rounded=1;whiteSpace=wrap;html=1;fontSize=12;glass=0;strokeWidth=1;shadow=0;fillColor=#f5f5f5;fontColor=#333333;strokeColor=#666666;" parent="1" vertex="1">
          <mxGeometry x="1779.5" y="475" width="100" height="45" as="geometry" />
        </mxCell>
        <mxCell id="o3AGPVBWF5X-8ZVsbOnd-38" value="" style="points=[[0.145,0.145,0],[0.5,0,0],[0.855,0.145,0],[1,0.5,0],[0.855,0.855,0],[0.5,1,0],[0.145,0.855,0],[0,0.5,0]];shape=mxgraph.bpmn.event;html=1;verticalLabelPosition=bottom;labelBackgroundColor=#ffffff;verticalAlign=top;align=center;perimeter=ellipsePerimeter;outlineConnect=0;aspect=fixed;outline=standard;symbol=general;fillColor=#e51400;fontColor=#ffffff;strokeColor=#B20000;" parent="1" vertex="1">
          <mxGeometry x="2499.5" y="480" width="35" height="35" as="geometry" />
        </mxCell>
        <mxCell id="o3AGPVBWF5X-8ZVsbOnd-39" value="" style="edgeStyle=orthogonalEdgeStyle;rounded=0;orthogonalLoop=1;jettySize=auto;html=1;fontSize=8;exitX=0.25;exitY=1;exitDx=0;exitDy=0;entryX=0.25;entryY=0;entryDx=0;entryDy=0;dashed=1;" parent="1" source="o3AGPVBWF5X-8ZVsbOnd-9" target="o3AGPVBWF5X-8ZVsbOnd-21" edge="1">
          <mxGeometry relative="1" as="geometry">
            <mxPoint x="1644.1" y="328" as="sourcePoint" />
            <mxPoint x="1644.1" y="440" as="targetPoint" />
            <Array as="points" />
          </mxGeometry>
        </mxCell>
        <mxCell id="o3AGPVBWF5X-8ZVsbOnd-40" value="" style="edgeStyle=orthogonalEdgeStyle;rounded=0;orthogonalLoop=1;jettySize=auto;html=1;fontSize=8;exitX=0.75;exitY=0;exitDx=0;exitDy=0;entryX=0.75;entryY=1;entryDx=0;entryDy=0;dashed=1;" parent="1" source="o3AGPVBWF5X-8ZVsbOnd-21" target="o3AGPVBWF5X-8ZVsbOnd-9" edge="1">
          <mxGeometry relative="1" as="geometry">
            <mxPoint x="1694.1" y="440" as="sourcePoint" />
            <mxPoint x="1694.1" y="328" as="targetPoint" />
            <Array as="points" />
          </mxGeometry>
        </mxCell>
        <mxCell id="o3AGPVBWF5X-8ZVsbOnd-41" style="edgeStyle=orthogonalEdgeStyle;rounded=0;orthogonalLoop=1;jettySize=auto;html=1;" parent="1" source="o3AGPVBWF5X-8ZVsbOnd-42" target="o3AGPVBWF5X-8ZVsbOnd-44" edge="1">
          <mxGeometry relative="1" as="geometry" />
        </mxCell>
        <mxCell id="o3AGPVBWF5X-8ZVsbOnd-42" value="&lt;font style=&quot;font-size: 10px;&quot;&gt;Формирование рейтинга сотрудников&lt;/font&gt;" style="rounded=1;whiteSpace=wrap;html=1;fontSize=12;glass=0;strokeWidth=1;shadow=0;fillColor=#f5f5f5;fontColor=#333333;strokeColor=#666666;" parent="1" vertex="1">
          <mxGeometry x="1934.5" y="475" width="100" height="45" as="geometry" />
        </mxCell>
        <mxCell id="o3AGPVBWF5X-8ZVsbOnd-43" style="edgeStyle=orthogonalEdgeStyle;rounded=0;orthogonalLoop=1;jettySize=auto;html=1;entryX=0.5;entryY=0;entryDx=0;entryDy=0;" parent="1" source="o3AGPVBWF5X-8ZVsbOnd-44" target="o3AGPVBWF5X-8ZVsbOnd-26" edge="1">
          <mxGeometry relative="1" as="geometry" />
        </mxCell>
        <mxCell id="o3AGPVBWF5X-8ZVsbOnd-44" value="&lt;font style=&quot;font-size: 10px;&quot;&gt;На рассмотрение директору&lt;/font&gt;" style="rounded=1;whiteSpace=wrap;html=1;fontSize=12;glass=0;strokeWidth=1;shadow=0;fillColor=#f5f5f5;fontColor=#333333;strokeColor=#666666;" parent="1" vertex="1">
          <mxGeometry x="2079.5" y="475" width="100" height="45" as="geometry" />
        </mxCell>
        <mxCell id="o3AGPVBWF5X-8ZVsbOnd-45" style="edgeStyle=orthogonalEdgeStyle;rounded=0;orthogonalLoop=1;jettySize=auto;html=1;" parent="1" source="o3AGPVBWF5X-8ZVsbOnd-46" target="o3AGPVBWF5X-8ZVsbOnd-49" edge="1">
          <mxGeometry relative="1" as="geometry" />
        </mxCell>
        <mxCell id="o3AGPVBWF5X-8ZVsbOnd-46" value="&lt;font style=&quot;font-size: 10px;&quot;&gt;Отображается на портале&lt;/font&gt;" style="rounded=1;whiteSpace=wrap;html=1;fontSize=12;glass=0;strokeWidth=1;shadow=0;fillColor=#f5f5f5;fontColor=#333333;strokeColor=#666666;" parent="1" vertex="1">
          <mxGeometry x="2208.5" y="475" width="100" height="45" as="geometry" />
        </mxCell>
        <mxCell id="o3AGPVBWF5X-8ZVsbOnd-47" style="edgeStyle=orthogonalEdgeStyle;rounded=0;orthogonalLoop=1;jettySize=auto;html=1;" parent="1" source="o3AGPVBWF5X-8ZVsbOnd-26" target="o3AGPVBWF5X-8ZVsbOnd-46" edge="1">
          <mxGeometry relative="1" as="geometry" />
        </mxCell>
        <mxCell id="o3AGPVBWF5X-8ZVsbOnd-48" style="edgeStyle=orthogonalEdgeStyle;rounded=0;orthogonalLoop=1;jettySize=auto;html=1;entryX=0;entryY=0.5;entryDx=0;entryDy=0;entryPerimeter=0;exitX=1;exitY=0.5;exitDx=0;exitDy=0;" parent="1" source="o3AGPVBWF5X-8ZVsbOnd-49" target="o3AGPVBWF5X-8ZVsbOnd-38" edge="1">
          <mxGeometry relative="1" as="geometry" />
        </mxCell>
        <mxCell id="o3AGPVBWF5X-8ZVsbOnd-49" value="Награждение сотрудника" style="rounded=1;whiteSpace=wrap;html=1;fontSize=12;glass=0;strokeWidth=1;shadow=0;fillColor=#f5f5f5;fontColor=#333333;strokeColor=#666666;" parent="1" vertex="1">
          <mxGeometry x="2353.5" y="475" width="100" height="45" as="geometry" />
        </mxCell>
        <mxCell id="GrEtkB3BwLiatl9SDRCj-9" value="&lt;font face=&quot;Times New Roman&quot; style=&quot;font-size: 10px;&quot;&gt;Выбор категории&lt;/font&gt;" style="whiteSpace=wrap;html=1;rounded=1;arcSize=50;align=center;verticalAlign=middle;strokeWidth=1;autosize=1;spacing=4;treeFolding=1;treeMoving=1;newEdgeStyle={&quot;edgeStyle&quot;:&quot;entityRelationEdgeStyle&quot;,&quot;startArrow&quot;:&quot;none&quot;,&quot;endArrow&quot;:&quot;none&quot;,&quot;segment&quot;:10,&quot;curved&quot;:1,&quot;sourcePerimeterSpacing&quot;:0,&quot;targetPerimeterSpacing&quot;:0};fillColor=#D4E1F5;" vertex="1" parent="1">
          <mxGeometry x="979.5" y="400" width="70" height="30" as="geometry" />
        </mxCell>
        <mxCell id="GrEtkB3BwLiatl9SDRCj-10" value="" style="startArrow=none;endArrow=none;segment=10;sourcePerimeterSpacing=0;targetPerimeterSpacing=0;rounded=0;exitX=0;exitY=0;exitDx=0;exitDy=0;" edge="1" target="GrEtkB3BwLiatl9SDRCj-9" parent="1" source="o3AGPVBWF5X-8ZVsbOnd-14">
          <mxGeometry relative="1" as="geometry">
            <mxPoint x="1050" y="520" as="sourcePoint" />
          </mxGeometry>
        </mxCell>
      </root>
    </mxGraphModel>
  </diagram>
</mxfile>
